<svg width="110" height="110" viewBox="0 0 110 110" xmlns="http://www.w3.org/2000/svg" xmlns:xlink="http://www.w3.org/1999/xlink"><title>accounting</title><desc>Created using Figma</desc><use xlink:href="#a" transform="translate(23.061 85.16)" fill="#FFF"/><use xlink:href="#b" transform="translate(14.183 92.27)" fill="#FFF"/><use xlink:href="#c" transform="translate(42.571 92.27)" fill="#FFF"/><use xlink:href="#d" fill="#FFF"/><use xlink:href="#e" transform="translate(72.734 60.33)" fill="#FFF"/><use xlink:href="#f" transform="translate(72.734 78.06)" fill="#FFF"/><use xlink:href="#f" transform="translate(81.612 78.06)" fill="#FFF"/><use xlink:href="#f" transform="translate(90.49 78.06)" fill="#FFF"/><use xlink:href="#g" transform="translate(99.347 78.06)" fill="#FFF"/><use xlink:href="#h" transform="translate(72.734 85.16)" fill="#FFF"/><use xlink:href="#h" transform="translate(81.612 85.16)" fill="#FFF"/><use xlink:href="#h" transform="translate(90.49 85.16)" fill="#FFF"/><use xlink:href="#i" transform="translate(99.347 85.16)" fill="#FFF"/><use xlink:href="#j" transform="translate(72.734 92.27)" fill="#FFF"/><use xlink:href="#j" transform="translate(81.612 92.27)" fill="#FFF"/><use xlink:href="#j" transform="translate(90.49 92.27)" fill="#FFF"/><use xlink:href="#k" transform="translate(99.347 92.27)" fill="#FFF"/><use xlink:href="#h" transform="translate(72.734 99.35)" fill="#FFF"/><use xlink:href="#h" transform="translate(81.612 99.35)" fill="#FFF"/><use xlink:href="#h" transform="translate(90.49 99.35)" fill="#FFF"/><use xlink:href="#i" transform="translate(99.347 99.35)" fill="#FFF"/><use xlink:href="#l" transform="translate(26.612 8.88)" fill="#FFF"/><use xlink:href="#m" transform="translate(56.776 21.29)" fill="#FFF"/><use xlink:href="#n" transform="translate(56.776 33.71)" fill="#FFF"/><use xlink:href="#o" transform="translate(26.612 46.12)" fill="#FFF"/><use xlink:href="#p" transform="translate(26.612 60.33)" fill="#FFF"/><defs><path id="a" d="M7.102 0C3.183 0 0 3.984 0 8.878s3.183 8.878 7.102 8.878c3.92 0 7.103-3.984 7.103-8.878S11.022 0 7.102 0zm0 14.183c-1.927 0-3.55-2.447-3.55-5.327S5.174 3.53 7.101 3.53c1.928 0 3.551 2.446 3.551 5.326 0 2.902-1.623 5.327-3.55 5.327z"/><path id="b" d="M3.551 0H0v3.551h3.551V0z"/><path id="c" d="M3.551 0H0v3.551h3.551V0z"/><path id="d" d="M94.266 53.224a2 2 0 0 1-2-2V2a2 2 0 0 0-2-2H19.734a2 2 0 0 0-2 2v74.061a2 2 0 0 1-2 2H2a2 2 0 0 0-2 2V108a2 2 0 0 0 2 2h56.327a2 2 0 0 0 2-2V97.795a2 2 0 0 1 2-2h1.327a2 2 0 0 1 2 2V108a2 2 0 0 0 2 2H108a2 2 0 0 0 2-2V55.224a2 2 0 0 0-2-2H94.266zM3.55 83.612a2 2 0 0 1 2-2h.478c1.31 0 2.26 1.267 1.496 2.331a7.108 7.108 0 0 1-1.639 1.639c-1.066.763-2.335-.186-2.335-1.497v-.473zm2 22.837a2 2 0 0 1-2-2v-.478c0-1.31 1.266-2.259 2.331-1.496a7.097 7.097 0 0 1 1.639 1.639c.763 1.066-.186 2.335-1.497 2.335H5.55zm51.225-2a2 2 0 0 1-2 2h-.479c-1.31 0-2.258-1.266-1.496-2.331a7.115 7.115 0 0 1 1.64-1.639c1.066-.763 2.335.186 2.335 1.497v.473zm0-8.415c0 .975-.713 1.789-1.636 2.102a10.688 10.688 0 0 0-6.677 6.677c-.314.924-1.127 1.636-2.103 1.636H13.966c-.975 0-1.789-.712-2.102-1.636a10.688 10.688 0 0 0-6.677-6.677c-.924-.313-1.636-1.127-1.636-2.102v-4.007c0-.975.712-1.789 1.636-2.102a10.689 10.689 0 0 0 6.677-6.677c.313-.924 1.127-1.636 2.102-1.636H46.36c.976 0 1.79.712 2.103 1.636a10.689 10.689 0 0 0 6.677 6.677c.923.313 1.636 1.127 1.636 2.102v4.007zm0-11.944c0 1.31-1.267 2.26-2.331 1.496a7.108 7.108 0 0 1-1.639-1.639c-.763-1.066.186-2.335 1.497-2.335h.473a2 2 0 0 1 2 2v.479zm8.877 6.176a2 2 0 0 1-2 2h-1.326a2 2 0 0 1-2-2V80.06a2 2 0 0 0-2-2H23.285a2 2 0 0 1-2-2V5.551a2 2 0 0 1 2-2h63.43a2 2 0 0 1 2 2v45.673a2 2 0 0 1-2 2H67.653a2 2 0 0 0-2 2v35.042zm40.796 14.183a2 2 0 0 1-2 2H71.183a2 2 0 0 1-2-2V58.776a2 2 0 0 1 2-2h33.266a2 2 0 0 1 2 2v45.673z"/><path id="e" d="M0 0v14.183h30.163V0H0zm26.612 10.632H3.552v-7.08h23.06v7.08z"/><path id="f" d="M3.551 0H0v3.551h3.551V0z"/><path id="g" d="M3.551 0H0v3.551h3.551V0z"/><path id="h" d="M3.551 0H0v3.551h3.551V0z"/><path id="i" d="M3.551 0H0v3.551h3.551V0z"/><path id="j" d="M3.551 0H0v3.551h3.551V0z"/><path id="k" d="M3.551 0H0v3.551h3.551V0z"/><path id="l" d="M0 0v28.388h24.837V0H0zm21.285 24.837H3.551V3.55h17.734v21.286z"/><path id="m" d="M26.612 0H0v3.551h26.612V0z"/><path id="n" d="M26.612 0H0v3.551h26.612V0z"/><path id="o" d="M56.776 0H0v3.551h56.776V0z"/><path id="p" d="M33.715 0H0v3.551h33.715V0z"/></defs></svg>