<svg width="79" height="91" viewBox="0 0 79 91" xmlns="http://www.w3.org/2000/svg" xmlns:xlink="http://www.w3.org/1999/xlink"><title>book</title><desc>Created using Figma</desc><use xlink:href="#a" transform="translate(30.385 39.433)" fill="#FFF"/><use xlink:href="#b" fill="#FFF"/><use xlink:href="#c" transform="translate(6.077 6.067)" fill="#FFF"/><use xlink:href="#d" transform="translate(21.269 30.333)" fill="#FFF"/><use xlink:href="#e" transform="translate(30.385 45.5)" fill="#FFF"/><defs><path id="a" d="M1.52 3.033h9.114c.84 0 1.52-.68 1.52-1.516 0-.838-.68-1.517-1.52-1.517H1.52C.681 0 0 .68 0 1.517c0 .837.68 1.516 1.52 1.516z"/><path id="b" d="M77.48 12.133H31.905c-.839 0-1.52.68-1.52 1.517 0 .837.681 1.517 1.52 1.517H75.96v68.25c0 2.423-2.13 4.55-4.557 4.55H7.596c-2.427 0-4.557-2.127-4.557-4.55V13.776a8.33 8.33 0 0 0 3.038 1.236v68.405a1.519 1.519 0 0 0 3.038 0V13.65c0-.831-.679-1.508-1.511-1.517-.763-.009-4.566-.268-4.566-4.55V6.067a3.039 3.039 0 0 1 3.039-3.034H77.48c.838 0 1.519-.68 1.519-1.516C79 .68 78.32 0 77.48 0H6.078C2.726 0 0 2.72 0 6.067v77.35C0 87.527 3.48 91 7.596 91h63.808C75.52 91 79 87.527 79 83.417V13.65c0-.837-.68-1.517-1.52-1.517z"/><path id="c" d="M69.884 1.517c0-.838-.68-1.517-1.519-1.517H19.75c-.839 0-1.52.68-1.52 1.517v14.538l-3.483-3.477a1.52 1.52 0 0 0-2.148 0l-3.484 3.477V1.517C9.115.679 8.435 0 7.596 0H1.52C.681 0 0 .68 0 1.517c0 .837.68 1.516 1.52 1.516h4.557v16.684a1.519 1.519 0 0 0 2.593 1.072l5.003-4.995 5.003 4.995a1.521 1.521 0 0 0 2.593-1.073V3.033h47.096c.839 0 1.52-.68 1.52-1.516z"/><path id="d" d="M0 1.517v24.266C0 26.62.68 27.3 1.52 27.3h33.422c.839 0 1.52-.68 1.52-1.517V1.517C36.461.679 35.78 0 34.941 0H1.52C.681 0 0 .68 0 1.517zm3.039 1.516h30.384v21.234H3.04V3.033z"/><path id="e" d="M16.711 0H1.52C.681 0 0 .68 0 1.517c0 .837.68 1.516 1.52 1.516H16.71c.839 0 1.52-.68 1.52-1.516C18.23.679 17.55 0 16.71 0z"/></defs></svg>