<svg width="84" height="98" viewBox="0 0 84 98" xmlns="http://www.w3.org/2000/svg" xmlns:xlink="http://www.w3.org/1999/xlink"><title>canvas</title><desc>Created using Figma</desc><use xlink:href="#a" fill="#FFF"/><use xlink:href="#b" transform="translate(47.493 41.466)" fill="#FFF"/><use xlink:href="#c" transform="translate(37.05 15.281)" fill="#FFF"/><defs><path id="a" d="M80.52 57.108V6.495a1.915 1.915 0 0 0-1.916-1.914h-23.17A4.649 4.649 0 0 0 50.789 0H33.21a4.648 4.648 0 0 0-4.644 4.58H5.395A1.915 1.915 0 0 0 3.48 6.496v50.613A4.65 4.65 0 0 0 0 61.601v1.853a4.649 4.649 0 0 0 4.646 4.642h10.37L6.5 95.519A1.913 1.913 0 0 0 8.33 98h7.66c.839 0 1.58-.546 1.83-1.347l8.868-28.558h9.738v27.99c0 1.058.858 1.915 1.916 1.915h7.316a1.915 1.915 0 0 0 1.916-1.914v-27.99h9.738l8.868 28.557c.25.801.991 1.347 1.83 1.347h7.66a1.917 1.917 0 0 0 1.83-2.481l-8.516-27.424h10.37A4.649 4.649 0 0 0 84 63.456V61.6a4.651 4.651 0 0 0-3.48-4.493zm-3.832-4.603v4.455H7.311v-4.455h69.377zm0-3.828H7.311V40.3l18.352-15.863 18.404 16.685a1.91 1.91 0 0 0 1.288.496 1.912 1.912 0 0 0 1.288-3.331l-.772-.7 10.88-9.301 19.937 13.93v6.46zM32.396 4.64c0-.44.373-.813.814-.813h17.58c.44 0 .813.372.813.813v1.854c0 .44-.373.812-.814.812H33.21a.824.824 0 0 1-.813-.812V4.64zM7.311 8.41h21.668a4.652 4.652 0 0 0 4.23 2.727h17.58c1.88 0 3.5-1.12 4.231-2.727h21.668v29.136L57.73 24.299a1.918 1.918 0 0 0-2.344.114L43.01 34.995 26.98 20.463a1.918 1.918 0 0 0-2.542-.03L7.31 35.238V8.408zm7.266 85.763H10.93l8.099-26.077h3.646l-8.098 26.077zm29.164 0h-3.483V68.096h3.483v26.076zm29.329 0h-3.647l-8.098-26.077h3.647l8.098 26.077zm7.097-30.718c0 .44-.372.813-.813.813H4.646a.824.824 0 0 1-.814-.813v-1.853c0-.44.373-.813.814-.813h74.708c.44 0 .813.372.813.813v1.853z"/><path id="b" d="M3.232.522L3.196.489c-.788-.706-2-.64-2.706.147A1.912 1.912 0 0 0 .637 3.34l.037.033a1.91 1.91 0 0 0 1.279.49 1.912 1.912 0 0 0 1.28-3.34z"/><path id="c" d="M5.709 0C2.56 0 0 2.558 0 5.702c0 3.145 2.56 5.703 5.709 5.703 3.148 0 5.709-2.558 5.709-5.703C11.418 2.558 8.857 0 5.708 0zm0 7.577a1.878 1.878 0 0 1-1.877-1.875 1.878 1.878 0 0 1 3.753 0A1.877 1.877 0 0 1 5.71 7.577z"/></defs></svg>