<svg width="91" height="91" viewBox="0 0 91 91" xmlns="http://www.w3.org/2000/svg" xmlns:xlink="http://www.w3.org/1999/xlink"><title>hospital</title><desc>Created using Figma</desc><use xlink:href="#a" transform="matrix(-1 0 0 1 91 0)" fill="#FFF"/><use xlink:href="#b" transform="matrix(-1 0 0 1 84.5 32.5)" fill="#FFF"/><use xlink:href="#c" transform="matrix(-1 0 0 1 84.5 45.5)" fill="#FFF"/><use xlink:href="#d" transform="matrix(-1 0 0 1 84.5 58.5)" fill="#FFF"/><use xlink:href="#e" transform="matrix(-1 0 0 1 22.75 32.5)" fill="#FFF"/><use xlink:href="#f" transform="matrix(-1 0 0 1 22.75 45.5)" fill="#FFF"/><use xlink:href="#g" transform="matrix(-1 0 0 1 22.75 58.5)" fill="#FFF"/><use xlink:href="#h" transform="matrix(-1 0 0 1 56.875 6.5)" fill="#FFF"/><use xlink:href="#i" transform="matrix(-1 0 0 1 56.875 32.5)" fill="#FFF"/><use xlink:href="#j" transform="matrix(-1 0 0 1 43.875 32.5)" fill="#FFF"/><use xlink:href="#k" transform="matrix(-1 0 0 1 56.875 45.5)" fill="#FFF"/><use xlink:href="#l" transform="matrix(-1 0 0 1 43.875 45.5)" fill="#FFF"/><use xlink:href="#m" transform="matrix(-1 0 0 1 56.875 58.5)" fill="#FFF"/><use xlink:href="#n" transform="matrix(-1 0 0 1 43.875 58.5)" fill="#FFF"/><use xlink:href="#o" transform="matrix(-1 0 0 1 84.5 71.5)" fill="#FFF"/><use xlink:href="#p" transform="matrix(-1 0 0 1 78 71.5)" fill="#FFF"/><use xlink:href="#o" transform="matrix(-1 0 0 1 71.5 71.5)" fill="#FFF"/><use xlink:href="#q" transform="matrix(-1 0 0 1 22.75 71.5)" fill="#FFF"/><use xlink:href="#r" transform="matrix(-1 0 0 1 16.25 71.5)" fill="#FFF"/><use xlink:href="#s" transform="matrix(-1 0 0 1 9.75 71.5)" fill="#FFF"/><defs><path id="a" d="M89.375 26H65V1.625C65 .728 64.272 0 63.375 0h-35.75C26.728 0 26 .728 26 1.625V26H1.625C.728 26 0 26.728 0 27.625v61.75C0 90.272.728 91 1.625 91h87.75c.897 0 1.625-.728 1.625-1.625v-61.75c0-.897-.728-1.625-1.625-1.625zM26 87.75H3.25v-58.5H26v58.5zm24.375 0h-9.75v-13h9.75v13zM61.75 27.625V87.75h-8.125v-13h3.25V71.5h-22.75v3.25h3.25v13H29.25V3.25h32.5v24.375zm26 60.125H65v-58.5h22.75v58.5z"/><path id="b" d="M14.625 0h-13C.728 0 0 .728 0 1.625v6.5C0 9.022.728 9.75 1.625 9.75h13c.897 0 1.625-.728 1.625-1.625v-6.5C16.25.728 15.522 0 14.625 0zM6.5 6.5H3.25V3.25H6.5V6.5zm6.5 0H9.75V3.25H13V6.5z"/><path id="c" d="M14.625 0h-13C.728 0 0 .728 0 1.625v6.5C0 9.022.728 9.75 1.625 9.75h13c.897 0 1.625-.728 1.625-1.625v-6.5C16.25.728 15.522 0 14.625 0zM6.5 6.5H3.25V3.25H6.5V6.5zm6.5 0H9.75V3.25H13V6.5z"/><path id="d" d="M14.625 0h-13C.728 0 0 .728 0 1.625v6.5C0 9.022.728 9.75 1.625 9.75h13c.897 0 1.625-.728 1.625-1.625v-6.5C16.25.728 15.522 0 14.625 0zM6.5 6.5H3.25V3.25H6.5V6.5zm6.5 0H9.75V3.25H13V6.5z"/><path id="e" d="M14.625 0h-13C.728 0 0 .728 0 1.625v6.5C0 9.022.728 9.75 1.625 9.75h13c.897 0 1.625-.728 1.625-1.625v-6.5C16.25.728 15.522 0 14.625 0zM6.5 6.5H3.25V3.25H6.5V6.5zm6.5 0H9.75V3.25H13V6.5z"/><path id="f" d="M14.625 0h-13C.728 0 0 .728 0 1.625v6.5C0 9.022.728 9.75 1.625 9.75h13c.897 0 1.625-.728 1.625-1.625v-6.5C16.25.728 15.522 0 14.625 0zM6.5 6.5H3.25V3.25H6.5V6.5zm6.5 0H9.75V3.25H13V6.5z"/><path id="g" d="M14.625 0h-13C.728 0 0 .728 0 1.625v6.5C0 9.022.728 9.75 1.625 9.75h13c.897 0 1.625-.728 1.625-1.625v-6.5C16.25.728 15.522 0 14.625 0zM6.5 6.5H3.25V3.25H6.5V6.5zm6.5 0H9.75V3.25H13V6.5z"/><path id="h" d="M21.125 6.5H16.25V1.625C16.25.728 15.522 0 14.625 0h-6.5C7.228 0 6.5.728 6.5 1.625V6.5H1.625C.728 6.5 0 7.228 0 8.125v6.5c0 .897.728 1.625 1.625 1.625H6.5v4.875c0 .897.728 1.625 1.625 1.625h6.5c.897 0 1.625-.728 1.625-1.625V16.25h4.875c.897 0 1.625-.728 1.625-1.625v-6.5c0-.897-.728-1.625-1.625-1.625zM19.5 13h-4.875c-.897 0-1.625.728-1.625 1.625V19.5H9.75v-4.875c0-.897-.728-1.625-1.625-1.625H3.25V9.75h4.875c.897 0 1.625-.728 1.625-1.625V3.25H13v4.875c0 .897.728 1.625 1.625 1.625H19.5V13z"/><path id="i" d="M8.125 0h-6.5C.728 0 0 .728 0 1.625v6.5C0 9.022.728 9.75 1.625 9.75h6.5c.897 0 1.625-.728 1.625-1.625v-6.5C9.75.728 9.022 0 8.125 0zM6.5 6.5H3.25V3.25H6.5V6.5z"/><path id="j" d="M8.125 0h-6.5C.728 0 0 .728 0 1.625v6.5C0 9.022.728 9.75 1.625 9.75h6.5c.897 0 1.625-.728 1.625-1.625v-6.5C9.75.728 9.022 0 8.125 0zM6.5 6.5H3.25V3.25H6.5V6.5z"/><path id="k" d="M8.125 0h-6.5C.728 0 0 .728 0 1.625v6.5C0 9.022.728 9.75 1.625 9.75h6.5c.897 0 1.625-.728 1.625-1.625v-6.5C9.75.728 9.022 0 8.125 0zM6.5 6.5H3.25V3.25H6.5V6.5z"/><path id="l" d="M8.125 0h-6.5C.728 0 0 .728 0 1.625v6.5C0 9.022.728 9.75 1.625 9.75h6.5c.897 0 1.625-.728 1.625-1.625v-6.5C9.75.728 9.022 0 8.125 0zM6.5 6.5H3.25V3.25H6.5V6.5z"/><path id="m" d="M8.125 0h-6.5C.728 0 0 .728 0 1.625v6.5C0 9.022.728 9.75 1.625 9.75h6.5c.897 0 1.625-.728 1.625-1.625v-6.5C9.75.728 9.022 0 8.125 0zM6.5 6.5H3.25V3.25H6.5V6.5z"/><path id="n" d="M8.125 0h-6.5C.728 0 0 .728 0 1.625v6.5C0 9.022.728 9.75 1.625 9.75h6.5c.897 0 1.625-.728 1.625-1.625v-6.5C9.75.728 9.022 0 8.125 0zM6.5 6.5H3.25V3.25H6.5V6.5z"/><path id="o" d="M3.25 0H0v3.25h3.25V0z"/><path id="p" d="M3.25 0H0v3.25h3.25V0z"/><path id="q" d="M3.25 0H0v3.25h3.25V0z"/><path id="r" d="M3.25 0H0v3.25h3.25V0z"/><path id="s" d="M3.25 0H0v3.25h3.25V0z"/></defs></svg>