<svg width="92" height="91" viewBox="0 0 92 91" xmlns="http://www.w3.org/2000/svg" xmlns:xlink="http://www.w3.org/1999/xlink"><title>industry</title><desc>Created using Figma</desc><use xlink:href="#a" transform="translate(0 18.52)" fill="#FFF"/><use xlink:href="#b" transform="translate(15.331)" fill="#FFF"/><use xlink:href="#c" transform="translate(32.2 67.868)" fill="#FFF"/><use xlink:href="#d" transform="translate(39.867 67.868)" fill="#FFF"/><use xlink:href="#e" transform="translate(53.667 63.242)" fill="#FFF"/><use xlink:href="#f" transform="translate(75.134 63.242)" fill="#FFF"/><defs><path id="a" d="M89.863 32.51l-19.33 8.33v-6.913c0-1.107-1.125-1.854-2.137-1.418l-21.177 9.128h-4.286V29.882c0-2.026-1.63-3.666-3.644-3.666h-4.977c-2.014 0-3.645 1.64-3.645 3.666v11.755H24.424L21.463 1.428A1.537 1.537 0 0 0 19.933 0h-9.2c-.802 0-1.47.623-1.529 1.428l-2.961 40.21H4.6c-.781 0-1.437.59-1.524 1.371L.01 70.768a1.539 1.539 0 0 0 1.524 1.712H90.466c.847 0 1.533-.69 1.533-1.542V33.927c0-1.107-1.126-1.854-2.137-1.418zm-56.13-2.628c0-.322.258-.582.579-.582h4.977c.32 0 .578.26.578.582v11.755h-6.134V29.882zM32.2 44.722H46v24.674H30.506L27.78 44.722h4.42zM12.157 3.084h6.353l2.839 38.553H9.318l2.84-38.553zM5.973 44.722h18.721l1.213 10.974 1.514 13.7h-5.954V58.6c0-.852-.686-1.542-1.533-1.542h-9.2c-.847 0-1.534.69-1.534 1.542v10.795H3.247l2.726-24.674zm6.294 24.674v-9.253H18.4v9.253h-6.133zm36.8-25.2l18.4-7.93V69.395h-4.6v-9.253c0-.852-.687-1.542-1.533-1.542H55.2c-.847 0-1.533.69-1.533 1.542v9.253h-4.6v-25.2zm7.666 25.2v-7.711H59.8v7.71h-3.067zm24.534 0H78.2v-7.711h3.067v7.71zm7.666 0h-4.6v-9.253c0-.852-.686-1.542-1.533-1.542h-6.133c-.847 0-1.534.69-1.534 1.542v9.253h-4.6v-25.2l18.4-7.93v33.13z"/><path id="b" d="M2.093 15.33c.104-.04.314-.118.61-.22a27.424 27.424 0 0 1 1.649-.506c1.215-.332 2.407-.57 3.502-.67 2.718-.25 4.166.326 4.443 1.79.026.278.133.928.326 1.752.32 1.368.777 2.738 1.4 4.03 1.856 3.855 4.805 6.267 8.98 6.267 1.615.044 3.242-.012 4.817-.239 2.106-.303 3.778-.851 4.8-1.787 2.291 2.304 4.522 3.755 6.657 4.523 1.482.533 2.731.679 3.676.595 3.09-.037 5.94-1.326 8.569-3.427a22.29 22.29 0 0 0 2.287-2.111c2.577 2.029 5.257 2.638 7.476 2.46.536-.015.917-.02 1.287-.029 11.47-.262 17.343-14.04 9.4-22.316a8.85 8.85 0 0 0-.41-.405c-.986-.894-2.56-.19-2.56 1.146 0 4.036-.94 6.247-2.38 7.21-.677.451-1.39.576-1.95.523l-.27-.022c-2.872 0-5.816-2.647-8.29-6.543-1.452-2.286-3.192-4.164-5.226-5.531C48.756.388 47.081-.093 45.913.015c-3.751.02-6.819 1.324-9.21 3.477-.329.296-.63.592-.904.885-.713-.997-1.773-1.73-3.073-2.204a10.33 10.33 0 0 0-3.594-.617c-3.543 0-6.481.624-8.84 1.675-1.08.48-1.892.977-2.452 1.41h-2.504c-5.316 0-9.334 1.594-12.172 4.273-1.738 1.64-2.692 3.305-3.083 4.495-.408 1.238.803 2.395 2.012 1.921zm13.243-7.605h3.067c.402 0 .789-.16 1.076-.444.262-.26.932-.73 2.054-1.23 1.968-.877 4.483-1.41 7.603-1.41a7.485 7.485 0 0 1 2.543.43c1.362.498 2.057 1.293 2.057 2.654 0 1.637 2.203 2.146 2.913.672.06-.123.213-.391.465-.756.434-.628.978-1.261 1.634-1.851 1.872-1.686 4.256-2.692 7.255-2.692l.28-.025c-.014.006.195.026.545.126.64.184 1.424.56 2.354 1.185 1.658 1.114 3.11 2.68 4.345 4.627 2.974 4.682 6.548 7.912 10.769 7.966a6.055 6.055 0 0 0 4.022-1.016c1.638-1.094 2.792-2.935 3.356-5.59 2.848 6.225-1.55 14.13-9.174 14.304-.375.009-.763.013-1.164.013l-.227.017c-.586.048-1.281.009-2.086-.181-1.206-.285-2.4-.857-3.527-1.79-.253-.209-.5-.435-.742-.678a1.528 1.528 0 0 0-2.302.153c-.119.155-.368.455-.734.85-.618.67-1.326 1.34-2.105 1.964-2.164 1.73-4.436 2.75-6.677 2.75l-.258.022c-.51.043-1.316-.05-2.369-.43-1.697-.61-3.543-1.81-5.489-3.767l-1.533-1.542-3.067-3.085a1.527 1.527 0 0 0-2.168 0 1.549 1.549 0 0 0 0 2.181l2.363 2.377c-.442.353-1.46.726-3.03.952-1.375.198-2.845.249-4.09.216-.111-.003-.19-.005-.22-.007-2.9-.002-4.9-1.638-6.293-4.53a16.593 16.593 0 0 1-1.175-3.392 13.93 13.93 0 0 1-.28-1.503c-.675-3.59-3.66-4.78-7.752-4.402-.774.07-1.572.197-2.383.366C7.531 9.022 10.8 7.725 15.336 7.725z"/><path id="c" d="M1.533 15.421c.847 0 1.534-.69 1.534-1.542V1.542C3.067.69 2.38 0 1.533 0S0 .69 0 1.542V13.88c0 .852.687 1.542 1.533 1.542z"/><path id="d" d="M1.533 15.421c.847 0 1.534-.69 1.534-1.542V1.542C3.067.69 2.38 0 1.533 0S0 .69 0 1.542V13.88c0 .852.686 1.542 1.533 1.542z"/><path id="e" d="M1.533 9.253h6.134c.846 0 1.533-.69 1.533-1.542V1.542C9.2.69 8.513 0 7.667 0H1.533C.686 0 0 .69 0 1.542v6.169c0 .851.686 1.542 1.533 1.542zm1.534-6.169h3.066v3.084H3.067V3.084z"/><path id="f" d="M1.533 9.253h6.134c.846 0 1.533-.69 1.533-1.542V1.542C9.2.69 8.513 0 7.667 0H1.533C.686 0 0 .69 0 1.542v6.169c0 .851.686 1.542 1.533 1.542zm1.534-6.169h3.066v3.084H3.067V3.084z"/></defs></svg>