<svg width="112" height="112" viewBox="0 0 112 112" xmlns="http://www.w3.org/2000/svg" xmlns:xlink="http://www.w3.org/1999/xlink"><title>interview</title><desc>Created using Figma</desc><use xlink:href="#a" transform="translate(12 24)" fill="#FFF"/><use xlink:href="#a" transform="translate(76 24)" fill="#FFF"/><use xlink:href="#b" transform="translate(0 52)" fill="#FFF"/><use xlink:href="#c" transform="translate(32)" fill="#FFF"/><use xlink:href="#d" transform="translate(40 8)" fill="#FFF"/><use xlink:href="#e" transform="translate(54 50)" fill="#FFF"/><use xlink:href="#f" transform="translate(46 42)" fill="#FFF"/><use xlink:href="#g" transform="translate(46 32)" fill="#FFF"/><use xlink:href="#g" transform="translate(54 32)" fill="#FFF"/><use xlink:href="#g" transform="translate(62 32)" fill="#FFF"/><defs><path id="a" d="M12 24c6.618 0 12-5.382 12-12S18.618 0 12 0 0 5.382 0 12s5.382 12 12 12zm0-20c4.412 0 8 3.588 8 8s-3.588 8-8 8-8-3.588-8-8 3.588-8 8-8z"/><path id="b" d="M108 0v26c0 3.308-2.692 6-6 6V10c0-5.514-4.486-10-10-10H82a2 2 0 0 0-2 2v12H64a2 2 0 0 0-2 2v6H50v-6a2 2 0 0 0-2-2H32V2a2 2 0 0 0-2-2H20c-5.514 0-10 4.486-10 10v22c-3.308 0-6-2.692-6-6V0H0v26c0 4.09 2.474 7.604 6 9.152V60h4V36h20v22a2 2 0 0 0 2 2h10V26h28v34h10a2 2 0 0 0 2-2V36h20v24h4V35.152c3.526-1.548 6-5.062 6-9.152V0h-4zM40 22H24V10h-4v14a2 2 0 0 0 2 2h14c1.102 0 2 .898 2 2v28h-4V34a2 2 0 0 0-2-2H14V10c0-3.308 2.692-6 6-6h8v12a2 2 0 0 0 2 2h16v4h-6zm40 10a2 2 0 0 0-2 2v22h-4V28c0-1.102.898-2 2-2h14a2 2 0 0 0 2-2V10h-4v12H66v-4h16a2 2 0 0 0 2-2V4h8c3.308 0 6 2.692 6 6v22H80z"/><path id="c" d="M6 20v6a2 2 0 0 0 3.6 1.2L15 20h15c3.308 0 6-2.692 6-6V6c0-3.308-2.692-6-6-6H6C2.692 0 0 2.692 0 6v8c0 3.308 2.692 6 6 6zM4 6c0-1.102.898-2 2-2h24c1.102 0 2 .898 2 2v8c0 1.102-.898 2-2 2H14c-.63 0-1.222.296-1.6.8L10 20v-2a2 2 0 0 0-2-2H6c-1.102 0-2-.898-2-2V6z"/><path id="d" d="M20 0H0v4h20V0z"/><path id="e" d="M12 0H0v4h12V0z"/><path id="f" d="M6 0C2.692 0 0 2.692 0 6v8c0 3.308 2.692 6 6 6h16c3.308 0 6-2.692 6-6v-1.394l3.664-5.496A1.999 1.999 0 0 0 30 4h-2.342A6.012 6.012 0 0 0 22 0H6zm18 6a2 2 0 0 0 2 2h.262l-1.926 2.89A2.011 2.011 0 0 0 24 12v2c0 1.102-.898 2-2 2H6c-1.102 0-2-.898-2-2V6c0-1.102.898-2 2-2h16c1.102 0 2 .898 2 2z"/><path id="g" d="M4 0H0v4h4V0z"/></defs></svg>