<svg width="276" height="77" viewBox="0 0 276 77" xmlns="http://www.w3.org/2000/svg" xmlns:xlink="http://www.w3.org/1999/xlink"><title>logo</title><desc>Created using Figma</desc><use xlink:href="#a" transform="translate(82.231 14.547)" fill="#FFF"/><g filter="url(#b)" transform="translate(656 474)"><use xlink:href="#c" transform="translate(-615.715 -447.942)" fill="#FFF"/><use xlink:href="#d" transform="translate(-628.357 -455.243)" fill="#FFF"/><use xlink:href="#e" transform="translate(-641 -463)" fill="#FFF"/></g><defs><filter id="b" filterUnits="userSpaceOnUse" x="-656" y="-474" width="74" height="77" color-interpolation-filters="sRGB"><feFlood flood-opacity="0" result="BackgroundImageFix"/><feColorMatrix in="SourceAlpha" values="0 0 0 0 0 0 0 0 0 0 0 0 0 0 0 0 0 0 255 0"/><feOffset dy="4"/><feGaussianBlur stdDeviation="7.5"/><feColorMatrix values="0 0 0 0 0 0 0 0 0 0 0 0 0 0 0 0 0 0 0.04 0"/><feBlend in2="BackgroundImageFix" result="effect1_dropShadow"/><feBlend in="SourceGraphic" in2="effect1_dropShadow" result="shape"/></filter><path id="a" d="M5.958 17.18c-1.14 0-2.118-.168-2.934-.504-.816-.336-1.434-.774-1.854-1.314a3.17 3.17 0 0 1-.648-1.8c0-.096.036-.18.108-.252a.396.396 0 0 1 .288-.126h2.268c.144 0 .258.03.342.09a.989.989 0 0 1 .288.234c.156.312.408.57.756.774.348.204.81.306 1.386.306.684 0 1.206-.108 1.566-.324.36-.216.54-.51.54-.882a.822.822 0 0 0-.288-.648c-.18-.168-.468-.318-.864-.45-.396-.132-.984-.282-1.764-.45-1.44-.3-2.52-.738-3.24-1.314C1.2 9.932.846 9.098.846 8.018c0-.732.204-1.386.612-1.962.408-.576.99-1.026 1.746-1.35.756-.324 1.638-.486 2.646-.486 1.044 0 1.95.18 2.718.54.768.36 1.35.816 1.746 1.368.408.54.624 1.074.648 1.602a.366.366 0 0 1-.378.378H8.208a.801.801 0 0 1-.36-.072.722.722 0 0 1-.234-.234c-.072-.276-.27-.51-.594-.702-.312-.192-.702-.288-1.17-.288-.54 0-.954.096-1.242.288-.288.192-.432.474-.432.846a.89.89 0 0 0 .234.63c.168.168.432.324.792.468.372.132.9.27 1.584.414 1.116.204 2.004.462 2.664.774.672.3 1.164.696 1.476 1.188.312.48.468 1.086.468 1.818 0 .804-.234 1.506-.702 2.106-.456.588-1.098 1.044-1.926 1.368-.816.312-1.752.468-2.808.468zm8.124-.18a.408.408 0 0 1-.27-.108.408.408 0 0 1-.108-.27c0-.072.006-.126.018-.162l4.23-11.556a.654.654 0 0 1 .234-.36.726.726 0 0 1 .468-.144h2.664c.192 0 .348.048.468.144.12.096.198.216.234.36l4.212 11.556.036.162a.378.378 0 0 1-.126.27.366.366 0 0 1-.27.108h-2.214c-.288 0-.48-.126-.576-.378l-.702-1.836h-4.806l-.684 1.836c-.096.252-.294.378-.594.378h-2.214zm7.578-4.806l-1.674-4.752-1.674 4.752h3.348zM29.937 17a.48.48 0 0 1-.324-.126.48.48 0 0 1-.126-.324V4.85c0-.132.042-.24.126-.324a.48.48 0 0 1 .324-.126h5.49c1.512 0 2.634.312 3.366.936.744.612 1.116 1.488 1.116 2.628 0 .6-.156 1.11-.468 1.53-.3.408-.642.708-1.026.9.492.228.906.594 1.242 1.098.336.504.504 1.068.504 1.692 0 1.2-.396 2.136-1.188 2.808-.792.672-1.92 1.008-3.384 1.008h-5.652zm5.13-7.596c.48 0 .846-.12 1.098-.36.252-.252.378-.582.378-.99 0-.396-.126-.714-.378-.954s-.618-.36-1.098-.36h-2.34v2.664h2.34zm.162 5.256c.492 0 .876-.144 1.152-.432.276-.288.414-.636.414-1.044 0-.432-.138-.786-.414-1.062-.276-.288-.66-.432-1.152-.432h-2.502v2.97h2.502zM50.043 17a.48.48 0 0 1-.324-.126.48.48 0 0 1-.126-.324V4.85c0-.132.042-.24.126-.324a.48.48 0 0 1 .324-.126h4.68c1.764 0 3.132.42 4.104 1.26.972.84 1.482 2.058 1.53 3.654.012.348.018.81.018 1.386 0 .576-.006 1.032-.018 1.368-.06 1.668-.558 2.91-1.494 3.726-.924.804-2.274 1.206-4.05 1.206h-4.77zm4.68-2.592c.792 0 1.374-.186 1.746-.558.372-.384.57-.99.594-1.818a20.4 20.4 0 0 0 .036-1.35c0-.552-.012-.996-.036-1.332-.024-.804-.24-1.398-.648-1.782-.396-.384-.99-.576-1.782-.576h-1.8v7.416h1.89zM64.728 17a.48.48 0 0 1-.324-.126.48.48 0 0 1-.126-.324V4.85c0-.132.042-.24.126-.324a.48.48 0 0 1 .324-.126h8.406c.132 0 .24.042.324.126a.439.439 0 0 1 .126.324v1.692a.48.48 0 0 1-.126.324.439.439 0 0 1-.324.126h-5.742v2.43h5.346a.41.41 0 0 1 .324.144.439.439 0 0 1 .126.324v1.566a.48.48 0 0 1-.126.324.439.439 0 0 1-.324.126h-5.346v2.502h5.886c.132 0 .24.042.324.126a.439.439 0 0 1 .126.324v1.692a.48.48 0 0 1-.126.324.439.439 0 0 1-.324.126h-8.55zm17.544.18c-1.14 0-2.118-.168-2.934-.504-.816-.336-1.434-.774-1.854-1.314a3.17 3.17 0 0 1-.648-1.8c0-.096.036-.18.108-.252a.396.396 0 0 1 .288-.126H79.5c.144 0 .258.03.342.09a.989.989 0 0 1 .288.234c.156.312.408.57.756.774.348.204.81.306 1.386.306.684 0 1.206-.108 1.566-.324.36-.216.54-.51.54-.882a.822.822 0 0 0-.288-.648c-.18-.168-.468-.318-.864-.45-.396-.132-.984-.282-1.764-.45-1.44-.3-2.52-.738-3.24-1.314-.708-.588-1.062-1.422-1.062-2.502 0-.732.204-1.386.612-1.962.408-.576.99-1.026 1.746-1.35.756-.324 1.638-.486 2.646-.486 1.044 0 1.95.18 2.718.54.768.36 1.35.816 1.746 1.368.408.54.624 1.074.648 1.602a.366.366 0 0 1-.378.378h-2.376a.801.801 0 0 1-.36-.072.722.722 0 0 1-.234-.234c-.072-.276-.27-.51-.594-.702-.312-.192-.702-.288-1.17-.288-.54 0-.954.096-1.242.288-.288.192-.432.474-.432.846a.89.89 0 0 0 .234.63c.168.168.432.324.792.468.372.132.9.27 1.584.414 1.116.204 2.004.462 2.664.774.672.3 1.164.696 1.476 1.188.312.48.468 1.086.468 1.818 0 .804-.234 1.506-.702 2.106-.456.588-1.098 1.044-1.926 1.368-.816.312-1.752.468-2.808.468zm9.487-.18a.48.48 0 0 1-.324-.126.48.48 0 0 1-.126-.324V4.85c0-.132.042-.24.126-.324a.48.48 0 0 1 .324-.126h2.412c.132 0 .24.042.324.126a.41.41 0 0 1 .144.324v11.7a.41.41 0 0 1-.144.324.439.439 0 0 1-.324.126H91.76zm12.388.18c-1.728 0-3.078-.42-4.05-1.26-.972-.852-1.488-2.058-1.548-3.618-.012-.348-.018-.9-.018-1.656 0-.756.006-1.308.018-1.656.06-1.524.582-2.7 1.566-3.528.996-.828 2.34-1.242 4.032-1.242 1.14 0 2.13.186 2.97.558.852.372 1.5.846 1.944 1.422.456.576.696 1.17.72 1.782a.341.341 0 0 1-.126.27.366.366 0 0 1-.27.108h-2.628a.649.649 0 0 1-.288-.054.42.42 0 0 1-.18-.198 2.293 2.293 0 0 0-.738-.9c-.336-.264-.804-.396-1.404-.396-1.428 0-2.178.756-2.25 2.268-.012.336-.018.858-.018 1.566 0 .696.006 1.218.018 1.566.072 1.584.84 2.376 2.304 2.376.708 0 1.272-.18 1.692-.54.432-.372.648-.936.648-1.692v-.342h-1.692a.439.439 0 0 1-.324-.126.502.502 0 0 1-.126-.342v-1.332c0-.132.042-.24.126-.324a.41.41 0 0 1 .324-.144h4.536a.41.41 0 0 1 .324.144.439.439 0 0 1 .126.324v2.052c0 1.02-.234 1.902-.702 2.646-.468.732-1.134 1.296-1.998 1.692-.852.384-1.848.576-2.988.576zM114.15 17a.48.48 0 0 1-.324-.126.48.48 0 0 1-.126-.324V4.85c0-.132.042-.24.126-.324a.48.48 0 0 1 .324-.126h1.908c.3 0 .504.114.612.342l4.392 6.912V4.85c0-.132.042-.24.126-.324a.48.48 0 0 1 .324-.126h2.16c.132 0 .24.042.324.126a.439.439 0 0 1 .126.324v11.682a.502.502 0 0 1-.126.342.439.439 0 0 1-.324.126h-1.926a.644.644 0 0 1-.594-.342l-4.392-6.66v6.552a.48.48 0 0 1-.126.324.439.439 0 0 1-.324.126h-2.16zM5.958 38.18c-1.14 0-2.118-.168-2.934-.504-.816-.336-1.434-.774-1.854-1.314a3.17 3.17 0 0 1-.648-1.8c0-.096.036-.18.108-.252a.396.396 0 0 1 .288-.126h2.268c.144 0 .258.03.342.09a.989.989 0 0 1 .288.234c.156.312.408.57.756.774.348.204.81.306 1.386.306.684 0 1.206-.108 1.566-.324.36-.216.54-.51.54-.882a.822.822 0 0 0-.288-.648c-.18-.168-.468-.318-.864-.45-.396-.132-.984-.282-1.764-.45-1.44-.3-2.52-.738-3.24-1.314C1.2 30.932.846 30.098.846 29.018c0-.732.204-1.386.612-1.962.408-.576.99-1.026 1.746-1.35.756-.324 1.638-.486 2.646-.486 1.044 0 1.95.18 2.718.54.768.36 1.35.816 1.746 1.368.408.54.624 1.074.648 1.602a.366.366 0 0 1-.378.378H8.208a.801.801 0 0 1-.36-.072.722.722 0 0 1-.234-.234c-.072-.276-.27-.51-.594-.702-.312-.192-.702-.288-1.17-.288-.54 0-.954.096-1.242.288-.288.192-.432.474-.432.846a.89.89 0 0 0 .234.63c.168.168.432.324.792.468.372.132.9.27 1.584.414 1.116.204 2.004.462 2.664.774.672.3 1.164.696 1.476 1.188.312.48.468 1.086.468 1.818 0 .804-.234 1.506-.702 2.106-.456.588-1.098 1.044-1.926 1.368-.816.312-1.752.468-2.808.468zm9.487-.18a.48.48 0 0 1-.324-.126.48.48 0 0 1-.126-.324v-11.7c0-.132.043-.24.127-.324a.48.48 0 0 1 .323-.126h8.407c.131 0 .24.042.323.126a.439.439 0 0 1 .127.324v1.692a.48.48 0 0 1-.127.324.439.439 0 0 1-.323.126H18.11v2.43h5.346a.41.41 0 0 1 .323.144.439.439 0 0 1 .127.324v1.566a.48.48 0 0 1-.127.324.439.439 0 0 1-.323.126H18.11v2.502h5.886c.132 0 .24.042.324.126a.439.439 0 0 1 .125.324v1.692a.48.48 0 0 1-.125.324.439.439 0 0 1-.325.126h-8.55zm13.297 0a.48.48 0 0 1-.324-.126.48.48 0 0 1-.126-.324v-11.7c0-.132.042-.24.126-.324a.48.48 0 0 1 .324-.126h4.896c1.572 0 2.796.36 3.672 1.08.888.708 1.332 1.716 1.332 3.024 0 .84-.198 1.554-.594 2.142-.396.588-.942 1.038-1.638 1.35l2.466 4.428a.448.448 0 0 1 .054.198.378.378 0 0 1-.126.27.345.345 0 0 1-.252.108h-2.394c-.348 0-.594-.162-.738-.486l-2.052-3.96h-1.836v3.996a.41.41 0 0 1-.144.324.439.439 0 0 1-.324.126h-2.322zm4.86-7.002c.552 0 .972-.132 1.26-.396.288-.276.432-.654.432-1.134 0-.48-.144-.858-.432-1.134-.276-.288-.696-.432-1.26-.432h-2.07v3.096h2.07zM45.732 38c-.383 0-.63-.18-.737-.54l-3.672-11.52-.036-.162c0-.096.036-.18.108-.252a.396.396 0 0 1 .288-.126h2.232a.6.6 0 0 1 .414.144c.12.096.198.204.234.324l2.556 8.316 2.538-8.316a.703.703 0 0 1 .216-.324.67.67 0 0 1 .432-.144h2.25c.096 0 .18.042.252.126a.324.324 0 0 1 .126.252l-.036.162-3.672 11.52c-.108.36-.354.54-.738.54h-2.754zm11.131 0a.48.48 0 0 1-.324-.126.48.48 0 0 1-.126-.324v-11.7c0-.132.042-.24.126-.324a.48.48 0 0 1 .324-.126h2.412c.132 0 .24.042.324.126a.41.41 0 0 1 .144.324v11.7a.41.41 0 0 1-.144.324.439.439 0 0 1-.324.126h-2.412zm12.352.18c-1.716 0-3.06-.414-4.032-1.242-.96-.84-1.47-2.052-1.53-3.636a48.41 48.41 0 0 1-.018-1.584c0-.744.006-1.284.018-1.62.06-1.56.582-2.76 1.566-3.6.984-.852 2.316-1.278 3.996-1.278 1.056 0 2.004.18 2.844.54.84.348 1.5.852 1.98 1.512.492.648.744 1.41.756 2.286v.036c0 .096-.042.18-.126.252a.382.382 0 0 1-.252.09h-2.43c-.156 0-.276-.03-.36-.09-.084-.072-.156-.198-.216-.378-.168-.612-.432-1.038-.792-1.278-.36-.252-.834-.378-1.422-.378-1.416 0-2.148.792-2.196 2.376a44.56 44.56 0 0 0-.018 1.494c0 .672.006 1.182.018 1.53.048 1.584.78 2.376 2.196 2.376.588 0 1.068-.126 1.44-.378.372-.264.63-.69.774-1.278.048-.18.114-.3.198-.36.084-.072.21-.108.378-.108h2.43c.108 0 .198.036.27.108.084.072.12.162.108.27-.012.876-.264 1.644-.756 2.304-.48.648-1.14 1.152-1.98 1.512-.84.348-1.788.522-2.844.522zm9.723-.18a.48.48 0 0 1-.324-.126.48.48 0 0 1-.126-.324v-11.7c0-.132.042-.24.126-.324a.48.48 0 0 1 .324-.126h8.406c.132 0 .24.042.324.126a.439.439 0 0 1 .126.324v1.692a.48.48 0 0 1-.126.324.439.439 0 0 1-.324.126h-5.742v2.43h5.346a.41.41 0 0 1 .324.144.439.439 0 0 1 .126.324v1.566a.48.48 0 0 1-.126.324.439.439 0 0 1-.324.126h-5.346v2.502h5.886c.132 0 .24.042.324.126a.439.439 0 0 1 .126.324v1.692a.48.48 0 0 1-.126.324.439.439 0 0 1-.324.126h-8.55zm17.544.18c-1.14 0-2.118-.168-2.934-.504-.816-.336-1.434-.774-1.854-1.314a3.17 3.17 0 0 1-.648-1.8c0-.096.036-.18.108-.252a.396.396 0 0 1 .288-.126h2.268c.144 0 .258.03.342.09a.989.989 0 0 1 .288.234c.156.312.408.57.756.774.348.204.81.306 1.386.306.684 0 1.206-.108 1.566-.324.36-.216.54-.51.54-.882a.822.822 0 0 0-.288-.648c-.18-.168-.468-.318-.864-.45-.396-.132-.984-.282-1.764-.45-1.44-.3-2.52-.738-3.24-1.314-.708-.588-1.062-1.422-1.062-2.502 0-.732.204-1.386.612-1.962.408-.576.99-1.026 1.746-1.35.756-.324 1.638-.486 2.646-.486 1.044 0 1.95.18 2.718.54.768.36 1.35.816 1.746 1.368.408.54.624 1.074.648 1.602a.366.366 0 0 1-.378.378h-2.376a.801.801 0 0 1-.36-.072.722.722 0 0 1-.234-.234c-.072-.276-.27-.51-.594-.702-.312-.192-.702-.288-1.17-.288-.54 0-.954.096-1.242.288-.288.192-.432.474-.432.846a.89.89 0 0 0 .234.63c.168.168.432.324.792.468.372.132.9.27 1.584.414 1.116.204 2.004.462 2.664.774.672.3 1.164.696 1.476 1.188.312.48.468 1.086.468 1.818 0 .804-.234 1.506-.702 2.106-.456.588-1.098 1.044-1.926 1.368-.816.312-1.752.468-2.808.468zM111.6 38a.48.48 0 0 1-.324-.126.48.48 0 0 1-.126-.324v-11.7c0-.132.042-.24.126-.324a.48.48 0 0 1 .324-.126h2.376c.132 0 .24.042.324.126a.439.439 0 0 1 .126.324v9.432h5.454a.41.41 0 0 1 .324.144.439.439 0 0 1 .126.324v1.8a.48.48 0 0 1-.126.324.439.439 0 0 1-.324.126h-8.28zm12.541 0a.48.48 0 0 1-.324-.126.48.48 0 0 1-.126-.324v-11.7c0-.132.042-.24.126-.324a.48.48 0 0 1 .324-.126h2.412c.132 0 .24.042.324.126a.41.41 0 0 1 .144.324v11.7a.41.41 0 0 1-.144.324.439.439 0 0 1-.324.126h-2.412zm7.636 0a.48.48 0 0 1-.324-.126.48.48 0 0 1-.126-.324v-11.7c0-.132.042-.24.126-.324a.48.48 0 0 1 .324-.126h1.944c.288 0 .498.132.63.396l3.168 5.67 3.168-5.67c.132-.264.342-.396.63-.396h1.926c.132 0 .24.042.324.126a.41.41 0 0 1 .144.324v11.7a.41.41 0 0 1-.144.324.439.439 0 0 1-.324.126h-2.142a.502.502 0 0 1-.342-.126.439.439 0 0 1-.126-.324V30.8l-2.016 3.762c-.156.276-.366.414-.63.414h-.936a.614.614 0 0 1-.378-.108.932.932 0 0 1-.252-.306l-2.034-3.762v6.75a.48.48 0 0 1-.126.324.439.439 0 0 1-.324.126h-2.16zm16.706 0a.48.48 0 0 1-.324-.126.48.48 0 0 1-.126-.324v-11.7c0-.132.042-.24.126-.324a.48.48 0 0 1 .324-.126h2.412c.132 0 .24.042.324.126a.41.41 0 0 1 .144.324v11.7a.41.41 0 0 1-.144.324.439.439 0 0 1-.324.126h-2.412zm10.408 0a.48.48 0 0 1-.324-.126.48.48 0 0 1-.126-.324v-9.324h-3.204a.48.48 0 0 1-.324-.126.48.48 0 0 1-.126-.324V25.85c0-.132.042-.24.126-.324a.48.48 0 0 1 .324-.126h9.684c.132 0 .24.042.324.126a.439.439 0 0 1 .126.324v1.926c0 .132-.042.24-.126.324a.439.439 0 0 1-.324.126h-3.204v9.324a.48.48 0 0 1-.126.324.439.439 0 0 1-.324.126h-2.376zm10.366 0a.48.48 0 0 1-.324-.126.48.48 0 0 1-.126-.324v-11.7c0-.132.042-.24.126-.324a.48.48 0 0 1 .324-.126h8.406c.132 0 .24.042.324.126a.439.439 0 0 1 .126.324v1.692a.48.48 0 0 1-.126.324.439.439 0 0 1-.324.126h-5.742v2.43h5.346a.41.41 0 0 1 .324.144.439.439 0 0 1 .126.324v1.566a.48.48 0 0 1-.126.324.439.439 0 0 1-.324.126h-5.346v2.502h5.886c.132 0 .24.042.324.126a.439.439 0 0 1 .126.324v1.692a.48.48 0 0 1-.126.324.439.439 0 0 1-.324.126h-8.55zm13.296 0a.48.48 0 0 1-.324-.126.48.48 0 0 1-.126-.324v-11.7c0-.132.042-.24.126-.324a.48.48 0 0 1 .324-.126h4.68c1.764 0 3.132.42 4.104 1.26.972.84 1.482 2.058 1.53 3.654.012.348.018.81.018 1.386 0 .576-.006 1.032-.018 1.368-.06 1.668-.558 2.91-1.494 3.726-.924.804-2.274 1.206-4.05 1.206h-4.77zm4.68-2.592c.792 0 1.374-.186 1.746-.558.372-.384.57-.99.594-1.818a20.4 20.4 0 0 0 .036-1.35c0-.552-.012-.996-.036-1.332-.024-.804-.24-1.398-.648-1.782-.396-.384-.99-.576-1.782-.576h-1.8v7.416h1.89z"/><path id="c" fill-rule="evenodd" d="M0 21.78v10.162l18.06-10.04V0L9.03 4.791v11.97L0 21.78zm0-4.166V9.583l5.418-2.875v7.894L0 17.614z"/><path id="d" fill-rule="evenodd" d="M0 21.323v10.619l18.06-10.04V0L9.03 4.791v11.513L0 21.324zm0-4.166V9.583l5.418-2.875v7.438L0 17.157z"/><path id="e" d="M0 9.583L18.06 0v21.903L0 31.942V9.582z"/></defs></svg>