<svg width="90" height="84" viewBox="0 0 90 84" xmlns="http://www.w3.org/2000/svg" xmlns:xlink="http://www.w3.org/1999/xlink"><title>store</title><desc>Created using Figma</desc><use xlink:href="#a" transform="translate(0 75)" fill="#FFF"/><use xlink:href="#b" transform="translate(1.5 6)" fill="#FFF"/><use xlink:href="#c" transform="translate(37.5 25.5)" fill="#FFF"/><use xlink:href="#d" transform="translate(25.5 25.5)" fill="#FFF"/><use xlink:href="#e" transform="translate(13.5 25.5)" fill="#FFF"/><use xlink:href="#f" transform="translate(1.5 25.5)" fill="#FFF"/><use xlink:href="#g" transform="translate(73.5 25.5)" fill="#FFF"/><use xlink:href="#h" transform="translate(61.5 25.5)" fill="#FFF"/><use xlink:href="#i" transform="translate(49.5 25.5)" fill="#FFF"/><use xlink:href="#j" transform="translate(37.5 7.5)" fill="#FFF"/><use xlink:href="#k" transform="translate(49.5 7.5)" fill="#FFF"/><use xlink:href="#l" transform="rotate(-85.239 26.543 -1.17)" fill="#FFF"/><use xlink:href="#m" transform="rotate(-80.526 21.668 4.645)" fill="#FFF"/><use xlink:href="#n" transform="rotate(-4.761 121.722 -717.82)" fill="#FFF"/><use xlink:href="#o" transform="rotate(-9.46 82.042 -422.179)" fill="#FFF"/><use xlink:href="#p" transform="translate(6)" fill="#FFF"/><use xlink:href="#q" transform="translate(6 34.5)" fill="#FFF"/><use xlink:href="#r" transform="translate(81 34.5)" fill="#FFF"/><use xlink:href="#s" transform="translate(12 42)" fill="#FFF"/><use xlink:href="#t" transform="translate(60 42)" fill="#FFF"/><use xlink:href="#u" transform="rotate(-45.001 76.436 1.335)" fill="#FFF"/><use xlink:href="#v" transform="rotate(-45.001 85.172 .713)" fill="#FFF"/><use xlink:href="#w" transform="rotate(-45.001 90.427 -11.952)" fill="#FFF"/><defs><path id="a" d="M88.5 0h-87A1.5 1.5 0 0 0 0 1.5v6C0 8.33.672 9 1.5 9h87c.83 0 1.5-.67 1.5-1.5v-6c0-.83-.67-1.5-1.5-1.5zM87 6H3V3h84v3z"/><path id="b" d="M86.955 19.136l-4.5-18A1.502 1.502 0 0 0 81 0H6a1.5 1.5 0 0 0-1.455 1.136l-4.5 18A1.501 1.501 0 0 0 1.5 21h84a1.5 1.5 0 0 0 1.455-1.864zM3.421 18l3.75-15h72.657l3.75 15H3.421z"/><path id="c" d="M12 0v3c0 2.481-2.019 4.5-4.5 4.5A4.506 4.506 0 0 1 3 3V0H0v3c0 4.136 3.364 7.5 7.5 7.5S15 7.136 15 3V0h-3z"/><path id="d" d="M12 0v3c0 2.481-2.019 4.5-4.5 4.5A4.506 4.506 0 0 1 3 3V0H0v3c0 4.136 3.364 7.5 7.5 7.5S15 7.136 15 3V0h-3z"/><path id="e" d="M12 0v3c0 2.481-2.019 4.5-4.5 4.5A4.506 4.506 0 0 1 3 3V0H0v3c0 4.136 3.364 7.5 7.5 7.5S15 7.136 15 3V0h-3z"/><path id="f" d="M12 0v3c0 2.481-2.019 4.5-4.5 4.5A4.506 4.506 0 0 1 3 3V0H0v3c0 4.136 3.364 7.5 7.5 7.5S15 7.136 15 3V0h-3z"/><path id="g" d="M12 0v3c0 2.481-2.019 4.5-4.5 4.5A4.506 4.506 0 0 1 3 3V0H0v3c0 4.136 3.364 7.5 7.5 7.5S15 7.136 15 3V0h-3z"/><path id="h" d="M12 0v3c0 2.481-2.019 4.5-4.5 4.5A4.506 4.506 0 0 1 3 3V0H0v3c0 4.136 3.364 7.5 7.5 7.5S15 7.136 15 3V0h-3z"/><path id="i" d="M12 0v3c0 2.481-2.019 4.5-4.5 4.5A4.506 4.506 0 0 1 3 3V0H0v3c0 4.136 3.364 7.5 7.5 7.5S15 7.136 15 3V0h-3z"/><path id="j" d="M3 0H0v18h3V0z"/><path id="k" d="M3 0H0v18h3V0z"/><path id="l" d="M18.06 0H0v3h18.06V0z"/><path id="m" d="M18.25 0H0v3h18.25V0z"/><path id="n" d="M2.998 0H0v18.06h2.998V0z"/><path id="o" d="M3 0H0v18.25h3V0z"/><path id="p" d="M76.5 0h-75A1.5 1.5 0 0 0 0 1.5v6h3V3h72v4.5h3v-6A1.5 1.5 0 0 0 76.5 0z"/><path id="q" d="M3 0H0v40.5h3V0z"/><path id="r" d="M3 0H0v42h3V0z"/><path id="s" d="M43.5 0h-42A1.5 1.5 0 0 0 0 1.5v24c0 .83.672 1.5 1.5 1.5h42c.83 0 1.5-.67 1.5-1.5v-24c0-.83-.67-1.5-1.5-1.5zM42 24H3V3h39v21z"/><path id="t" d="M16.5 0h-15C.67 0 0 .67 0 1.5v33c0 .83.67 1.5 1.5 1.5h15c.83 0 1.5-.67 1.5-1.5v-33c0-.83-.67-1.5-1.5-1.5zM15 33H3V3h12v30z"/><path id="u" d="M8.486 0H0v3h8.486V0z"/><path id="v" d="M19.092 0H0v3h19.092V0z"/><path id="w" d="M8.486 0H0v3h8.486V0z"/></defs></svg>