<svg width="110" height="110" viewBox="0 0 110 110" version="1.1" xmlns="http://www.w3.org/2000/svg" xmlns:xlink="http://www.w3.org/1999/xlink">
<title>accounting</title>
<desc>Created using Figma</desc>
<g id="Canvas" transform="translate(164 -2245)">
<g id="accounting">
<g id="Group">
<g id="Group">
<g id="Vector">
<use xlink:href="#path0_fill" transform="translate(-140.939 2330.16)" fill="#FFFFFF"/>
</g>
</g>
</g>
<g id="Group">
<g id="Group">
<g id="Vector">
<use xlink:href="#path1_fill" transform="translate(-149.817 2337.27)" fill="#FFFFFF"/>
</g>
</g>
</g>
<g id="Group">
<g id="Group">
<g id="Vector">
<use xlink:href="#path2_fill" transform="translate(-121.429 2337.27)" fill="#FFFFFF"/>
</g>
</g>
</g>
<g id="Group">
<g id="Group">
<g id="Vector">
<use xlink:href="#path3_fill" transform="translate(-164 2245)" fill="#FFFFFF"/>
</g>
</g>
</g>
<g id="Group">
<g id="Group">
<g id="Vector">
<use xlink:href="#path4_fill" transform="translate(-91.2658 2305.33)" fill="#FFFFFF"/>
</g>
</g>
</g>
<g id="Group">
<g id="Group">
<g id="Vector">
<use xlink:href="#path5_fill" transform="translate(-91.2658 2323.06)" fill="#FFFFFF"/>
</g>
</g>
</g>
<g id="Group">
<g id="Group">
<g id="Vector">
<use xlink:href="#path5_fill" transform="translate(-82.3878 2323.06)" fill="#FFFFFF"/>
</g>
</g>
</g>
<g id="Group">
<g id="Group">
<g id="Vector">
<use xlink:href="#path5_fill" transform="translate(-73.5098 2323.06)" fill="#FFFFFF"/>
</g>
</g>
</g>
<g id="Group">
<g id="Group">
<g id="Vector">
<use xlink:href="#path6_fill" transform="translate(-64.6535 2323.06)" fill="#FFFFFF"/>
</g>
</g>
</g>
<g id="Group">
<g id="Group">
<g id="Vector">
<use xlink:href="#path7_fill" transform="translate(-91.2658 2330.16)" fill="#FFFFFF"/>
</g>
</g>
</g>
<g id="Group">
<g id="Group">
<g id="Vector">
<use xlink:href="#path7_fill" transform="translate(-82.3878 2330.16)" fill="#FFFFFF"/>
</g>
</g>
</g>
<g id="Group">
<g id="Group">
<g id="Vector">
<use xlink:href="#path7_fill" transform="translate(-73.5098 2330.16)" fill="#FFFFFF"/>
</g>
</g>
</g>
<g id="Group">
<g id="Group">
<g id="Vector">
<use xlink:href="#path8_fill" transform="translate(-64.6535 2330.16)" fill="#FFFFFF"/>
</g>
</g>
</g>
<g id="Group">
<g id="Group">
<g id="Vector">
<use xlink:href="#path9_fill" transform="translate(-91.2658 2337.27)" fill="#FFFFFF"/>
</g>
</g>
</g>
<g id="Group">
<g id="Group">
<g id="Vector">
<use xlink:href="#path9_fill" transform="translate(-82.3878 2337.27)" fill="#FFFFFF"/>
</g>
</g>
</g>
<g id="Group">
<g id="Group">
<g id="Vector">
<use xlink:href="#path9_fill" transform="translate(-73.5098 2337.27)" fill="#FFFFFF"/>
</g>
</g>
</g>
<g id="Group">
<g id="Group">
<g id="Vector">
<use xlink:href="#path10_fill" transform="translate(-64.6535 2337.27)" fill="#FFFFFF"/>
</g>
</g>
</g>
<g id="Group">
<g id="Group">
<g id="Vector">
<use xlink:href="#path7_fill" transform="translate(-91.2658 2344.35)" fill="#FFFFFF"/>
</g>
</g>
</g>
<g id="Group">
<g id="Group">
<g id="Vector">
<use xlink:href="#path7_fill" transform="translate(-82.3878 2344.35)" fill="#FFFFFF"/>
</g>
</g>
</g>
<g id="Group">
<g id="Group">
<g id="Vector">
<use xlink:href="#path7_fill" transform="translate(-73.5098 2344.35)" fill="#FFFFFF"/>
</g>
</g>
</g>
<g id="Group">
<g id="Group">
<g id="Vector">
<use xlink:href="#path8_fill" transform="translate(-64.6535 2344.35)" fill="#FFFFFF"/>
</g>
</g>
</g>
<g id="Group">
<g id="Group">
<g id="Vector">
<use xlink:href="#path11_fill" transform="translate(-137.388 2253.88)" fill="#FFFFFF"/>
</g>
</g>
</g>
<g id="Group">
<g id="Group">
<g id="Vector">
<use xlink:href="#path12_fill" transform="translate(-107.224 2266.29)" fill="#FFFFFF"/>
</g>
</g>
</g>
<g id="Group">
<g id="Group">
<g id="Vector">
<use xlink:href="#path13_fill" transform="translate(-107.224 2278.71)" fill="#FFFFFF"/>
</g>
</g>
</g>
<g id="Group">
<g id="Group">
<g id="Vector">
<use xlink:href="#path14_fill" transform="translate(-137.388 2291.12)" fill="#FFFFFF"/>
</g>
</g>
</g>
<g id="Group">
<g id="Group">
<g id="Vector">
<use xlink:href="#path15_fill" transform="translate(-137.388 2305.33)" fill="#FFFFFF"/>
</g>
</g>
</g>
</g>
</g>
<defs>
<path id="path0_fill" d="M 7.10236 -2.64325e-06C 3.18307 -2.64325e-06 -3.07715e-15 3.98425 -3.07715e-15 8.87795C -3.07715e-15 13.7717 3.18307 17.7559 7.10236 17.7559C 11.0217 17.7559 14.2047 13.7717 14.2047 8.87795C 14.2047 3.98425 11.0217 -2.64325e-06 7.10236 -2.64325e-06ZM 7.10236 14.1831C 5.1752 14.1831 3.55118 11.7362 3.55118 8.8563C 3.55118 5.97638 5.1752 3.52953 7.10236 3.52953C 9.02953 3.52953 10.6535 5.97638 10.6535 8.8563C 10.6535 11.7579 9.02953 14.1831 7.10236 14.1831Z"/>
<path id="path1_fill" d="M 3.55118 0L 0 0L 0 3.55118L 3.55118 3.55118L 3.55118 0Z"/>
<path id="path2_fill" d="M 3.55118 0L 0 0L 0 3.55118L 3.55118 3.55118L 3.55118 0Z"/>
<path id="path3_fill" d="M 94.2658 53.2244C 93.1612 53.2244 92.2658 52.329 92.2658 51.2244L 92.2658 2C 92.2658 0.895433 91.3703 0 90.2658 0L 19.7343 0C 18.6297 0 17.7343 0.895431 17.7343 2L 17.7343 76.061C 17.7343 77.1656 16.8388 78.061 15.7343 78.061L 8.87795 78.061L 2 78.061C 0.895431 78.061 0 78.9565 0 80.061L 0 86.939L 0 101.122L 0 108C 0 109.105 0.895431 110 2 110L 8.87795 110L 51.4488 110L 58.3268 110C 59.4313 110 60.3268 109.105 60.3268 108L 60.3268 101.122L 60.3268 97.7953C 60.3268 96.6907 61.2222 95.7953 62.3268 95.7953L 63.6535 95.7953C 64.7581 95.7953 65.6535 96.6907 65.6535 97.7953L 65.6535 108C 65.6535 109.105 66.549 110 67.6535 110L 108 110C 109.105 110 110 109.105 110 108L 110 55.2244C 110 54.1198 109.105 53.2244 108 53.2244L 94.2658 53.2244ZM 3.55118 83.6122C 3.55118 82.5076 4.44661 81.6122 5.55118 81.6122L 6.02944 81.6122C 7.33901 81.6122 8.28806 82.8785 7.52539 83.9431C 7.0722 84.5757 6.51786 85.1291 5.88629 85.5815C 4.82022 86.3452 3.55118 85.3961 3.55118 84.0847L 3.55118 83.6122ZM 5.55118 106.449C 4.44661 106.449 3.55118 105.553 3.55118 104.449L 3.55118 103.971C 3.55118 102.661 4.8175 101.712 5.88208 102.475C 6.51466 102.928 7.06811 103.482 7.52052 104.114C 8.28415 105.18 7.33505 106.449 6.0237 106.449L 5.55118 106.449ZM 56.7756 104.449C 56.7756 105.553 55.8802 106.449 54.7756 106.449L 54.2973 106.449C 52.9878 106.449 52.0387 105.183 52.8014 104.118C 53.2546 103.485 53.8089 102.932 54.4405 102.479C 55.5066 101.716 56.7756 102.665 56.7756 103.976L 56.7756 104.449ZM 56.7756 96.0336C 56.7756 97.0089 56.0634 97.8226 55.1398 98.1358C 52.0031 99.1996 49.5264 101.676 48.4626 104.813C 48.1494 105.737 47.3357 106.449 46.3604 106.449L 13.9664 106.449C 12.9911 106.449 12.1774 105.737 11.8642 104.813C 10.8004 101.676 8.32368 99.1997 5.18697 98.1358C 4.26334 97.8226 3.55118 97.0089 3.55118 96.0336L 3.55118 92.0274C 3.55118 91.0521 4.26334 90.2384 5.18697 89.9252C 8.32368 88.8614 10.8004 86.3847 11.8642 83.248C 12.1774 82.3244 12.9911 81.6122 13.9664 81.6122L 46.3604 81.6122C 47.3357 81.6122 48.1494 82.3244 48.4626 83.248C 49.5264 86.3847 52.0031 88.8614 55.1398 89.9252C 56.0634 90.2384 56.7756 91.0521 56.7756 92.0274L 56.7756 96.0336ZM 56.7756 84.0905C 56.7756 85.4 55.5093 86.3491 54.4447 85.5864C 53.8121 85.1332 53.2587 84.5789 52.8063 83.9473C 52.0426 82.8812 52.9917 81.6122 54.3031 81.6122L 54.7756 81.6122C 55.8802 81.6122 56.7756 82.5076 56.7756 83.6122L 56.7756 84.0905ZM 65.6535 90.2658C 65.6535 91.3703 64.7581 92.2658 63.6535 92.2658L 62.3268 92.2658C 61.2222 92.2658 60.3268 91.3703 60.3268 90.2658L 60.3268 86.939L 60.3268 80.061C 60.3268 78.9565 59.4313 78.061 58.3268 78.061L 51.4488 78.061L 23.2854 78.061C 22.1809 78.061 21.2854 77.1656 21.2854 76.061L 21.2854 5.55118C 21.2854 4.44661 22.1809 3.55118 23.2854 3.55118L 86.7146 3.55118C 87.8191 3.55118 88.7146 4.44661 88.7146 5.55118L 88.7146 51.2244C 88.7146 52.329 87.8191 53.2244 86.7146 53.2244L 67.6535 53.2244C 66.549 53.2244 65.6535 54.1198 65.6535 55.2244L 65.6535 90.2658ZM 106.449 104.449C 106.449 105.553 105.553 106.449 104.449 106.449L 71.1831 106.449C 70.0785 106.449 69.1831 105.553 69.1831 104.449L 69.1831 58.7756C 69.1831 57.671 70.0785 56.7756 71.1831 56.7756L 104.449 56.7756C 105.553 56.7756 106.449 57.671 106.449 58.7756L 106.449 104.449Z"/>
<path id="path4_fill" d="M -1.32163e-06 1.32163e-06L -1.32163e-06 14.1831L 30.1634 14.1831L 30.1634 1.32163e-06L -1.32163e-06 1.32163e-06ZM 26.6122 10.6319L 3.55118 10.6319L 3.55118 3.55118L 26.6122 3.55118L 26.6122 10.6319Z"/>
<path id="path5_fill" d="M 3.55118 0L 0 0L 0 3.55118L 3.55118 3.55118L 3.55118 0Z"/>
<path id="path6_fill" d="M 3.55118 0L -2.64325e-06 0L -2.64325e-06 3.55118L 3.55118 3.55118L 3.55118 0Z"/>
<path id="path7_fill" d="M 3.55118 -2.64325e-06L 0 -2.64325e-06L 0 3.55118L 3.55118 3.55118L 3.55118 -2.64325e-06Z"/>
<path id="path8_fill" d="M 3.55118 -2.64325e-06L -2.64325e-06 -2.64325e-06L -2.64325e-06 3.55118L 3.55118 3.55118L 3.55118 -2.64325e-06Z"/>
<path id="path9_fill" d="M 3.55118 0L 0 0L 0 3.55118L 3.55118 3.55118L 3.55118 0Z"/>
<path id="path10_fill" d="M 3.55118 0L -2.64325e-06 0L -2.64325e-06 3.55118L 3.55118 3.55118L 3.55118 0Z"/>
<path id="path11_fill" d="M 3.30407e-07 0L 3.30407e-07 28.3878L 24.8366 28.3878L 24.8366 0L 3.30407e-07 0ZM 21.2854 24.8366L 3.55118 24.8366L 3.55118 3.55118L 21.2854 3.55118L 21.2854 24.8366Z"/>
<path id="path12_fill" d="M 26.6122 0L 2.64325e-06 0L 2.64325e-06 3.55118L 26.6122 3.55118L 26.6122 0Z"/>
<path id="path13_fill" d="M 26.6122 0L 2.64325e-06 0L 2.64325e-06 3.55118L 26.6122 3.55118L 26.6122 0Z"/>
<path id="path14_fill" d="M 56.7756 0L 0 0L 0 3.55118L 56.7756 3.55118L 56.7756 0Z"/>
<path id="path15_fill" d="M 33.7146 0L 0 0L 0 3.55118L 33.7146 3.55118L 33.7146 0Z"/>
</defs>
</svg>
