<svg width="79" height="91" viewBox="0 0 79 91" version="1.1" xmlns="http://www.w3.org/2000/svg" xmlns:xlink="http://www.w3.org/1999/xlink">
<title>book</title>
<desc>Created using Figma</desc>
<g id="Canvas" transform="translate(190 -547)">
<g id="book">
<g id="Group">
<g id="Group">
<g id="Group">
<g id="Vector">
<use xlink:href="#path0_fill" transform="translate(-159.615 586.433)" fill="#FFFFFF"/>
</g>
<g id="Vector">
<use xlink:href="#path1_fill" transform="translate(-190 547)" fill="#FFFFFF"/>
</g>
<g id="Vector">
<use xlink:href="#path2_fill" transform="translate(-183.923 553.067)" fill="#FFFFFF"/>
</g>
<g id="Vector">
<use xlink:href="#path3_fill" transform="translate(-168.731 577.333)" fill="#FFFFFF"/>
</g>
<g id="Vector">
<use xlink:href="#path4_fill" transform="translate(-159.615 592.5)" fill="#FFFFFF"/>
</g>
</g>
</g>
</g>
</g>
</g>
<defs>
<path id="path0_fill" d="M 1.51917 3.03321L 10.6345 3.03321C 11.4731 3.03321 12.1537 2.35374 12.1537 1.51661C 12.1537 0.679478 11.4731 7.81059e-07 10.6345 7.81059e-07L 1.51917 7.81059e-07C 0.680625 7.81059e-07 5.43318e-07 0.679478 5.43318e-07 1.51661C 5.43318e-07 2.35374 0.680625 3.03321 1.51917 3.03321Z"/>
<path id="path1_fill" d="M 77.4807 12.1334L 31.9038 12.1334C 31.0653 12.1334 30.3846 12.8129 30.3846 13.65C 30.3846 14.4871 31.0653 15.1666 31.9038 15.1666L 75.9615 15.1666L 75.9615 83.4166C 75.9615 85.8402 73.8315 87.9666 71.4038 87.9666L 7.5962 87.9666C 5.16852 87.9666 3.03852 85.8402 3.03852 83.4166L 3.03852 13.7758C 4.01539 14.434 5.09553 14.8207 6.07703 15.012L 6.07703 83.4166C 6.07703 84.2537 6.75766 84.9332 7.5962 84.9332C 8.43475 84.9332 9.11537 84.2537 9.11537 83.4166L 9.11537 13.65C 9.11537 12.8189 8.43635 12.1425 7.60368 12.1334C 6.84098 12.1243 3.03834 11.865 3.03834 7.58339L 3.03834 6.06678C 3.03834 4.39395 4.40101 3.03339 6.07685 3.03339L 77.4807 3.03339C 78.3192 3.03339 78.9998 2.35391 78.9998 1.51679C 78.9998 0.679656 78.3194 0 77.4807 0L 6.07703 0C 2.72553 0 -1.03231e-07 2.72094 -1.03231e-07 6.06661L -1.03231e-07 83.4166C -1.03231e-07 87.5269 3.47915 91 7.5962 91L 71.4038 91C 75.5209 91 79 87.5269 79 83.4166L 79 13.65C 79 12.8129 78.3194 12.1334 77.4807 12.1334Z"/>
<path id="path2_fill" d="M 69.8844 1.51661C 69.8844 0.679479 69.2038 -2.00689e-07 68.3653 -2.00689e-07L 19.7499 -2.00689e-07C 18.9114 -2.00689e-07 18.2307 0.679479 18.2307 1.51661L 18.2307 16.0555L 14.7471 12.5776C 14.153 11.9845 13.1929 11.9845 12.599 12.5776L 9.11537 16.0553L 9.11537 1.51661C 9.11537 0.679479 8.43474 -2.00689e-07 7.5962 -2.00689e-07L 1.51917 -2.00689e-07C 0.680627 -2.00689e-07 -3.04258e-07 0.679479 -3.04258e-07 1.51661C -3.04258e-07 2.35374 0.680627 3.03321 1.51917 3.03321L 6.07685 3.03321L 6.07685 19.7166C 6.07685 20.3294 6.44752 20.8829 7.01421 21.118C 7.58231 21.3516 8.2341 21.2227 8.67011 20.7889L 13.6729 15.7945L 18.6756 20.7889C 18.9658 21.0786 19.3547 21.2332 19.7497 21.2332C 19.9457 21.2332 20.1432 21.1954 20.3315 21.1179C 20.8982 20.8827 21.2689 20.3293 21.2689 19.7164L 21.2689 3.03321L 68.3649 3.03321C 69.2038 3.03321 69.8844 2.35374 69.8844 1.51661Z"/>
<path id="path3_fill" d="M 1.08664e-06 1.51661L 1.08664e-06 25.7832C 1.08664e-06 26.6203 0.680625 27.2998 1.51917 27.2998L 34.9421 27.2998C 35.7807 27.2998 36.4613 26.6203 36.4613 25.7832L 36.4613 1.51661C 36.4613 0.679478 35.7807 1.32346e-06 34.9421 1.32346e-06L 1.51917 1.32346e-06C 0.680625 1.32346e-06 1.08664e-06 0.679478 1.08664e-06 1.51661ZM 3.03852 3.03322L 33.4231 3.03322L 33.4231 24.2666L 3.03852 24.2666L 3.03852 3.03322Z"/>
<path id="path4_fill" d="M 16.7114 0L 1.51917 0C 0.680626 0 -9.12775e-07 0.679477 -9.12775e-07 1.51661C -9.12775e-07 2.35373 0.680626 3.03322 1.51917 3.03322L 16.7114 3.03322C 17.5499 3.03322 18.2306 2.35373 18.2306 1.51661C 18.2306 0.679477 17.5499 0 16.7114 0Z"/>
</defs>
</svg>
