<svg width="84" height="98" viewBox="0 0 84 98" version="1.1" xmlns="http://www.w3.org/2000/svg" xmlns:xlink="http://www.w3.org/1999/xlink">
<title>canvas</title>
<desc>Created using Figma</desc>
<g id="Canvas" transform="translate(190 -843)">
<g id="canvas">
<g id="Group">
<g id="Group">
<g id="Vector">
<use xlink:href="#path0_fill" transform="translate(-190 843)" fill="#FFFFFF"/>
</g>
</g>
</g>
<g id="Group">
<g id="Group">
<g id="Vector">
<use xlink:href="#path1_fill" transform="translate(-142.507 884.466)" fill="#FFFFFF"/>
</g>
</g>
</g>
<g id="Group">
<g id="Group">
<g id="Vector">
<use xlink:href="#path2_fill" transform="translate(-152.95 858.281)" fill="#FFFFFF"/>
</g>
</g>
</g>
</g>
</g>
<defs>
<path id="path0_fill" d="M 80.5207 57.1082L 80.5207 6.49478C 80.5207 5.43765 79.6628 4.58073 78.6044 4.58073L 55.434 4.58073C 55.4012 2.04938 53.3309 0 50.7892 0L 33.2098 0C 30.6683 0 28.598 2.04938 28.5652 4.58073L 5.39518 4.58073C 4.33684 4.58073 3.47894 5.43765 3.47894 6.49478L 3.47894 57.1084C 1.48011 57.627 -2.69004e-07 59.4445 -2.69004e-07 61.6011L -2.69004e-07 63.4543C -2.69004e-07 66.0134 2.0843 68.0955 4.64631 68.0955L 15.0159 68.0955L 6.49951 95.5188C 6.31919 96.0997 6.42593 96.7316 6.78714 97.2214C 7.14835 97.7112 7.72092 98 8.3299 98L 15.9891 98C 16.8288 98 17.5706 97.4541 17.8193 96.6531L 26.6879 68.0955L 36.4258 68.0955L 36.4258 96.0858C 36.4258 97.1429 37.2837 97.9998 38.3421 97.9998L 45.6577 97.9998C 46.7163 97.9998 47.574 97.1429 47.574 96.0858L 47.574 68.0955L 57.3119 68.0955L 66.1805 96.6531C 66.4292 97.4541 67.171 98 68.0107 98L 75.6705 98C 76.2793 98 76.852 97.711 77.2132 97.2214C 77.5745 96.7316 77.681 96.0999 77.5007 95.5188L 68.9843 68.0955L 79.3539 68.0955C 81.9157 68.0955 84 66.0134 84 63.4543L 84 61.6011C 83.9998 59.4444 82.5195 57.6268 80.5207 57.1082ZM 76.6882 52.5047L 76.6882 56.9597L 7.31142 56.9597L 7.31142 52.5047L 76.6882 52.5047ZM 76.688 48.6768L 7.31142 48.6768L 7.31142 40.3003L 25.6627 24.4374L 44.0672 41.1218C 44.4342 41.4545 44.8951 41.6185 45.3546 41.6185C 45.8762 41.6185 46.396 41.407 46.7739 40.9909C 47.4852 40.2081 47.4264 38.9976 46.6429 38.2873L 45.8712 37.5877L 56.7503 28.286L 76.688 42.2169L 76.688 48.6768ZM 32.3962 4.64121C 32.3962 4.20059 32.7687 3.82812 33.2098 3.82812L 50.7892 3.82812C 51.2304 3.82812 51.6029 4.2004 51.6029 4.64121L 51.6029 6.49478C 51.6029 6.9354 51.2304 7.30749 50.7892 7.30749L 33.2098 7.30749C 32.7687 7.30749 32.3962 6.9354 32.3962 6.49478L 32.3962 4.64121ZM 7.31104 8.40884L 28.9789 8.40884C 29.7104 10.0151 31.3309 11.1356 33.2098 11.1356L 50.7892 11.1356C 52.6681 11.1356 54.2887 10.0151 55.0201 8.40884L 76.688 8.40884L 76.688 37.545L 57.7304 24.299C 57.0143 23.7986 56.0499 23.8455 55.3859 24.4134L 43.0106 34.9945L 26.9805 20.4626C 26.2627 19.8118 25.1716 19.799 24.4386 20.4326L 7.31104 35.2376L 7.31104 8.40884ZM 14.577 94.1717L 10.9304 94.1717L 19.0285 68.0953L 22.6749 68.0953L 14.577 94.1717ZM 43.7413 94.1717L 40.2581 94.1717L 40.2581 68.0955L 43.7413 68.0955L 43.7413 94.1717ZM 73.0696 94.1717L 69.4226 94.1717L 61.3247 68.0953L 64.9715 68.0953L 73.0696 94.1717ZM 80.1673 63.4543C 80.1673 63.8949 79.7948 64.2674 79.3537 64.2674L 4.64631 64.2674C 4.205 64.2674 3.83248 63.8951 3.83248 63.4543L 3.83248 61.6011C 3.83248 61.1603 4.205 60.788 4.64631 60.788L 5.39518 60.788L 78.6044 60.788L 79.3537 60.788C 79.7948 60.788 80.1673 61.1603 80.1673 61.6011L 80.1673 63.4543Z"/>
<path id="path1_fill" d="M 3.2325 0.52191L 3.19552 0.488796C 2.40756 -0.216726 1.19592 -0.150692 0.489593 0.636369C -0.217117 1.42343 -0.150817 2.63369 0.637142 3.33921L 0.674124 3.37233C 1.03993 3.70001 1.49715 3.86118 1.95264 3.86118C 2.47807 3.86118 3.00178 3.64642 3.38005 3.22475C 4.08657 2.43769 4.02046 1.22762 3.2325 0.52191Z"/>
<path id="path2_fill" d="M 5.70887 -7.00949e-08C 2.56087 -7.00949e-08 -3.50874e-07 2.55814 -3.50874e-07 5.70236C -3.50874e-07 8.84659 2.56087 11.4045 5.70887 11.4045C 8.85668 11.4045 11.4177 8.84659 11.4177 5.70236C 11.4177 2.55814 8.85668 -7.00949e-08 5.70887 -7.00949e-08ZM 5.70887 7.57661C 4.67429 7.57661 3.83248 6.73576 3.83248 5.70236C 3.83248 4.66896 4.67429 3.82812 5.70887 3.82812C 6.74364 3.82812 7.58525 4.66896 7.58525 5.70236C 7.58525 6.73576 6.74364 7.57661 5.70887 7.57661Z"/>
</defs>
</svg>
