<svg width="12" height="12" viewBox="0 0 12 12" version="1.1" xmlns="http://www.w3.org/2000/svg" xmlns:xlink="http://www.w3.org/1999/xlink">
<title>Union</title>
<desc>Created using Figma</desc>
<g id="Canvas" transform="translate(-1426 -3217)">
<g id="Union">
<use xlink:href="#path0_fill" transform="translate(1426 3217)" fill="#F57145"/>
</g>
</g>
<defs>
<path id="path0_fill" fill-rule="evenodd" d="M 0.495667 0.495667C -0.165222 1.15656 -0.165222 2.22784 0.495667 2.88873L 3.60687 6.00006L 0.495789 9.11115C -0.164978 9.77203 -0.164978 10.8436 0.495789 11.5045C 1.15668 12.1651 2.22821 12.1651 2.88898 11.5045L 6.00006 8.39337L 9.11115 11.5045C 9.77191 12.1651 10.8434 12.1651 11.5043 11.5045C 12.1651 10.8436 12.1651 9.77203 11.5043 9.11115L 8.39325 6.00006L 11.5045 2.88873C 12.1653 2.22784 12.1653 1.15656 11.5045 0.495667C 10.8437 -0.165222 9.77216 -0.165222 9.11127 0.495667L 6.00006 3.60699L 2.88885 0.495667C 2.22797 -0.165222 1.15643 -0.165222 0.495667 0.495667Z"/>
</defs>
</svg>
