<svg width="91" height="91" viewBox="0 0 91 91" version="1.1" xmlns="http://www.w3.org/2000/svg" xmlns:xlink="http://www.w3.org/1999/xlink">
<title>hospital</title>
<desc>Created using Figma</desc>
<g id="Canvas" transform="translate(-185 -547)">
<g id="hospital">
<g id="Group">
<g id="Group">
<g id="Vector">
<use xlink:href="#path0_fill" transform="matrix(-1 0 0 1 276 547)" fill="#FFFFFF"/>
</g>
</g>
</g>
<g id="Group">
<g id="Group">
<g id="Vector">
<use xlink:href="#path1_fill" transform="matrix(-1 0 0 1 269.5 579.5)" fill="#FFFFFF"/>
</g>
</g>
</g>
<g id="Group">
<g id="Group">
<g id="Vector">
<use xlink:href="#path2_fill" transform="matrix(-1 0 0 1 269.5 592.5)" fill="#FFFFFF"/>
</g>
</g>
</g>
<g id="Group">
<g id="Group">
<g id="Vector">
<use xlink:href="#path3_fill" transform="matrix(-1 0 0 1 269.5 605.5)" fill="#FFFFFF"/>
</g>
</g>
</g>
<g id="Group">
<g id="Group">
<g id="Vector">
<use xlink:href="#path4_fill" transform="matrix(-1 0 0 1 207.75 579.5)" fill="#FFFFFF"/>
</g>
</g>
</g>
<g id="Group">
<g id="Group">
<g id="Vector">
<use xlink:href="#path5_fill" transform="matrix(-1 0 0 1 207.75 592.5)" fill="#FFFFFF"/>
</g>
</g>
</g>
<g id="Group">
<g id="Group">
<g id="Vector">
<use xlink:href="#path6_fill" transform="matrix(-1 0 0 1 207.75 605.5)" fill="#FFFFFF"/>
</g>
</g>
</g>
<g id="Group">
<g id="Group">
<g id="Vector">
<use xlink:href="#path7_fill" transform="matrix(-1 0 0 1 241.875 553.5)" fill="#FFFFFF"/>
</g>
</g>
</g>
<g id="Group">
<g id="Group">
<g id="Vector">
<use xlink:href="#path8_fill" transform="matrix(-1 0 0 1 241.875 579.5)" fill="#FFFFFF"/>
</g>
</g>
</g>
<g id="Group">
<g id="Group">
<g id="Vector">
<use xlink:href="#path9_fill" transform="matrix(-1 0 0 1 228.875 579.5)" fill="#FFFFFF"/>
</g>
</g>
</g>
<g id="Group">
<g id="Group">
<g id="Vector">
<use xlink:href="#path10_fill" transform="matrix(-1 0 0 1 241.875 592.5)" fill="#FFFFFF"/>
</g>
</g>
</g>
<g id="Group">
<g id="Group">
<g id="Vector">
<use xlink:href="#path11_fill" transform="matrix(-1 0 0 1 228.875 592.5)" fill="#FFFFFF"/>
</g>
</g>
</g>
<g id="Group">
<g id="Group">
<g id="Vector">
<use xlink:href="#path12_fill" transform="matrix(-1 0 0 1 241.875 605.5)" fill="#FFFFFF"/>
</g>
</g>
</g>
<g id="Group">
<g id="Group">
<g id="Vector">
<use xlink:href="#path13_fill" transform="matrix(-1 0 0 1 228.875 605.5)" fill="#FFFFFF"/>
</g>
</g>
</g>
<g id="Group">
<g id="Group">
<g id="Vector">
<use xlink:href="#path14_fill" transform="matrix(-1 0 0 1 269.5 618.5)" fill="#FFFFFF"/>
</g>
</g>
</g>
<g id="Group">
<g id="Group">
<g id="Vector">
<use xlink:href="#path15_fill" transform="matrix(-1 0 0 1 263 618.5)" fill="#FFFFFF"/>
</g>
</g>
</g>
<g id="Group">
<g id="Group">
<g id="Vector">
<use xlink:href="#path14_fill" transform="matrix(-1 0 0 1 256.5 618.5)" fill="#FFFFFF"/>
</g>
</g>
</g>
<g id="Group">
<g id="Group">
<g id="Vector">
<use xlink:href="#path16_fill" transform="matrix(-1 0 0 1 207.75 618.5)" fill="#FFFFFF"/>
</g>
</g>
</g>
<g id="Group">
<g id="Group">
<g id="Vector">
<use xlink:href="#path17_fill" transform="matrix(-1 0 0 1 201.25 618.5)" fill="#FFFFFF"/>
</g>
</g>
</g>
<g id="Group">
<g id="Group">
<g id="Vector">
<use xlink:href="#path18_fill" transform="matrix(-1 0 0 1 194.75 618.5)" fill="#FFFFFF"/>
</g>
</g>
</g>
</g>
</g>
<defs>
<path id="path0_fill" d="M 89.3748 26L 64.9998 26L 64.9998 1.62503C 64.9998 0.728 64.2718 0 63.3748 0L 27.625 0C 26.728 0 26 0.728 26 1.62503L 26 26L 1.62502 26C 0.727999 26 0 26.7281 0 27.6251L 0 89.3752C 0 90.272 0.727999 91 1.62502 91L 27.625 91L 39 91L 52 91L 63.375 91L 89.375 91C 90.272 91 91 90.272 91 89.375L 91 27.6251C 90.9998 26.7281 90.2718 26 89.3748 26ZM 26 87.7499L 3.25004 87.7499L 3.25004 29.2499L 26 29.2499L 26 87.7499ZM 50.375 87.7499L 40.625 87.7499L 40.625 74.7499L 50.375 74.7499L 50.375 87.7499ZM 61.75 27.6251L 61.75 87.7501L 53.625 87.7501L 53.625 74.7501L 56.8749 74.7501L 56.8749 71.5001L 51.9998 71.5001L 38.9998 71.5001L 34.1249 71.5001L 34.1249 74.7501L 37.375 74.7501L 37.375 87.7501L 29.25 87.7501L 29.25 27.6251L 29.25 3.25005L 61.75 3.25005L 61.75 27.6251ZM 87.7498 87.7499L 64.9998 87.7499L 64.9998 29.2499L 87.7498 29.2499L 87.7498 87.7499Z"/>
<path id="path1_fill" d="M 14.625 -9.54628e-07L 1.62502 -9.54628e-07C 0.727999 -9.54628e-07 -1.51872e-07 0.728 -1.51872e-07 1.62503L -1.51872e-07 8.12495C -1.51872e-07 9.02197 0.727999 9.74998 1.62502 9.74998L 14.625 9.74998C 15.522 9.74998 16.25 9.02197 16.25 8.12495L 16.25 1.62503C 16.25 0.728 15.522 -9.54628e-07 14.625 -9.54628e-07ZM 6.50009 6.5001L 3.25004 6.5001L 3.25004 3.25005L 6.50009 3.25005L 6.50009 6.5001ZM 13 6.5001L 9.75013 6.5001L 9.75013 3.25005L 13.0002 3.25005L 13.0002 6.5001L 13 6.5001Z"/>
<path id="path2_fill" d="M 14.625 0L 1.62502 0C 0.727999 0 -1.51872e-07 0.728001 -1.51872e-07 1.62503L -1.51872e-07 8.12495C -1.51872e-07 9.02197 0.727999 9.74997 1.62502 9.74997L 14.625 9.74997C 15.522 9.74997 16.25 9.02197 16.25 8.12495L 16.25 1.62503C 16.25 0.728001 15.522 0 14.625 0ZM 6.50009 6.49993L 3.25004 6.49993L 3.25004 3.24987L 6.50009 3.24987L 6.50009 6.49993ZM 13 6.49993L 9.75013 6.49993L 9.75013 3.24987L 13.0002 3.24987L 13.0002 6.49993L 13 6.49993Z"/>
<path id="path3_fill" d="M 14.625 9.54628e-07L 1.62502 9.54628e-07C 0.727999 9.54628e-07 -1.51872e-07 0.728002 -1.51872e-07 1.62503L -1.51872e-07 8.12495C -1.51872e-07 9.02197 0.727999 9.74997 1.62502 9.74997L 14.625 9.74997C 15.522 9.74997 16.25 9.02197 16.25 8.12495L 16.25 1.62503C 16.25 0.728002 15.522 9.54628e-07 14.625 9.54628e-07ZM 6.50009 6.49992L 3.25004 6.49992L 3.25004 3.24987L 6.50009 3.24987L 6.50009 6.49992ZM 13 6.49992L 9.75013 6.49992L 9.75013 3.24987L 13.0002 3.24987L 13.0002 6.49992L 13 6.49992Z"/>
<path id="path4_fill" d="M 14.625 -9.54628e-07L 1.62502 -9.54628e-07C 0.728 -9.54628e-07 0 0.728 0 1.62503L 0 8.12495C 0 9.02197 0.728 9.74998 1.62502 9.74998L 14.625 9.74998C 15.522 9.74998 16.25 9.02197 16.25 8.12495L 16.25 1.62503C 16.25 0.728 15.522 -9.54628e-07 14.625 -9.54628e-07ZM 6.49991 6.5001L 3.24987 6.5001L 3.24987 3.25005L 6.49991 3.25005L 6.49991 6.5001ZM 13 6.5001L 9.74996 6.5001L 9.74996 3.25005L 13 3.25005L 13 6.5001Z"/>
<path id="path5_fill" d="M 14.625 0L 1.62502 0C 0.728 0 0 0.728001 0 1.62503L 0 8.12495C 0 9.02197 0.728 9.74997 1.62502 9.74997L 14.625 9.74997C 15.522 9.74997 16.25 9.02197 16.25 8.12495L 16.25 1.62503C 16.25 0.728001 15.522 0 14.625 0ZM 6.49991 6.49993L 3.24987 6.49993L 3.24987 3.24987L 6.49991 3.24987L 6.49991 6.49993ZM 13 6.49993L 9.74996 6.49993L 9.74996 3.24987L 13 3.24987L 13 6.49993Z"/>
<path id="path6_fill" d="M 14.625 9.54628e-07L 1.62502 9.54628e-07C 0.728 9.54628e-07 0 0.728002 0 1.62503L 0 8.12495C 0 9.02197 0.728 9.74997 1.62502 9.74997L 14.625 9.74997C 15.522 9.74997 16.25 9.02197 16.25 8.12495L 16.25 1.62503C 16.25 0.728002 15.522 9.54628e-07 14.625 9.54628e-07ZM 6.49991 6.49992L 3.24987 6.49992L 3.24987 3.24987L 6.49991 3.24987L 6.49991 6.49992ZM 13 6.49992L 9.74996 6.49992L 9.74996 3.24987L 13 3.24987L 13 6.49992Z"/>
<path id="path7_fill" d="M 21.1251 6.5001L 16.25 6.5001L 16.25 1.62503C 16.25 0.728 15.522 -1.51873e-07 14.625 -1.51873e-07L 8.12511 -1.51873e-07C 7.22809 -1.51873e-07 6.50009 0.728 6.50009 1.62503L 6.50009 6.5001L 1.62502 6.5001C 0.727998 6.5001 -1.25837e-06 7.2281 -1.25837e-06 8.12513L -1.25837e-06 14.6251C -1.25837e-06 15.5221 0.727998 16.2501 1.62502 16.2501L 6.50009 16.2501L 6.50009 21.1252C 6.50009 22.0222 7.22809 22.7502 8.12511 22.7502L 14.625 22.7502C 15.522 22.7502 16.25 22.0222 16.25 21.1252L 16.25 16.2501L 21.1251 16.2501C 22.0221 16.2501 22.7501 15.5221 22.7501 14.6251L 22.7501 8.12513C 22.7501 7.2281 22.0221 6.5001 21.1251 6.5001ZM 19.5001 13L 14.625 13C 13.728 13 13 13.728 13 14.6251L 13 19.5001L 9.74996 19.5001L 9.74996 14.6251C 9.74996 13.728 9.02196 13 8.12493 13L 3.24987 13L 3.24987 9.75015L 8.12493 9.75015C 9.02196 9.75015 9.74996 9.02215 9.74996 8.12513L 9.74996 3.25005L 13 3.25005L 13 8.12513C 13 9.02215 13.728 9.75015 14.625 9.75015L 19.5001 9.75015L 19.5001 13Z"/>
<path id="path8_fill" d="M 8.12493 -9.54628e-07L 1.62502 -9.54628e-07C 0.728 -9.54628e-07 0 0.728 0 1.62503L 0 8.12495C 0 9.02197 0.728 9.74998 1.62502 9.74998L 8.12493 9.74998C 9.02196 9.74998 9.74996 9.02197 9.74996 8.12495L 9.74996 1.62503C 9.74996 0.728 9.02196 -9.54628e-07 8.12493 -9.54628e-07ZM 6.49991 6.5001L 3.24987 6.5001L 3.24987 3.25005L 6.49991 3.25005L 6.49991 6.5001Z"/>
<path id="path9_fill" d="M 8.12493 -9.54628e-07L 1.62502 -9.54628e-07C 0.728001 -9.54628e-07 9.54626e-07 0.728 9.54626e-07 1.62503L 9.54626e-07 8.12495C 9.54626e-07 9.02197 0.728001 9.74998 1.62502 9.74998L 8.12493 9.74998C 9.02196 9.74998 9.74996 9.02197 9.74996 8.12495L 9.74996 1.62503C 9.74996 0.728 9.02196 -9.54628e-07 8.12493 -9.54628e-07ZM 6.49991 6.5001L 3.24987 6.5001L 3.24987 3.25005L 6.49991 3.25005L 6.49991 6.5001Z"/>
<path id="path10_fill" d="M 8.12493 0L 1.62502 0C 0.728 0 0 0.728001 0 1.62503L 0 8.12495C 0 9.02197 0.728 9.74997 1.62502 9.74997L 8.12493 9.74997C 9.02196 9.74997 9.74996 9.02197 9.74996 8.12495L 9.74996 1.62503C 9.74996 0.728001 9.02196 0 8.12493 0ZM 6.49991 6.49993L 3.24987 6.49993L 3.24987 3.24987L 6.49991 3.24987L 6.49991 6.49993Z"/>
<path id="path11_fill" d="M 8.12493 0L 1.62502 0C 0.728001 0 9.54626e-07 0.728001 9.54626e-07 1.62503L 9.54626e-07 8.12495C 9.54626e-07 9.02197 0.728001 9.74997 1.62502 9.74997L 8.12493 9.74997C 9.02196 9.74997 9.74996 9.02197 9.74996 8.12495L 9.74996 1.62503C 9.74996 0.728001 9.02196 0 8.12493 0ZM 6.49991 6.49993L 3.24987 6.49993L 3.24987 3.24987L 6.49991 3.24987L 6.49991 6.49993Z"/>
<path id="path12_fill" d="M 8.12493 9.54628e-07L 1.62502 9.54628e-07C 0.728 9.54628e-07 0 0.728002 0 1.62503L 0 8.12495C 0 9.02197 0.728 9.74997 1.62502 9.74997L 8.12493 9.74997C 9.02196 9.74997 9.74996 9.02197 9.74996 8.12495L 9.74996 1.62503C 9.74996 0.728002 9.02196 9.54628e-07 8.12493 9.54628e-07ZM 6.49991 6.49992L 3.24987 6.49992L 3.24987 3.24987L 6.49991 3.24987L 6.49991 6.49992Z"/>
<path id="path13_fill" d="M 8.12493 9.54628e-07L 1.62502 9.54628e-07C 0.728001 9.54628e-07 9.54626e-07 0.728002 9.54626e-07 1.62503L 9.54626e-07 8.12495C 9.54626e-07 9.02197 0.728001 9.74997 1.62502 9.74997L 8.12493 9.74997C 9.02196 9.74997 9.74996 9.02197 9.74996 8.12495L 9.74996 1.62503C 9.74996 0.728002 9.02196 9.54628e-07 8.12493 9.54628e-07ZM 6.49991 6.49992L 3.24987 6.49992L 3.24987 3.24987L 6.49991 3.24987L 6.49991 6.49992Z"/>
<path id="path14_fill" d="M 3.25004 1.90926e-06L 0 1.90926e-06L 0 3.25005L 3.25004 3.25005L 3.25004 1.90926e-06Z"/>
<path id="path15_fill" d="M 3.25004 1.90926e-06L 0 1.90926e-06L 0 3.25005L 3.25004 3.25005L 3.25004 1.90926e-06Z"/>
<path id="path16_fill" d="M 3.25005 1.90926e-06L 0 1.90926e-06L 0 3.25005L 3.25005 3.25005L 3.25005 1.90926e-06Z"/>
<path id="path17_fill" d="M 3.25004 1.90926e-06L 2.56013e-06 1.90926e-06L 2.56013e-06 3.25005L 3.25004 3.25005L 3.25004 1.90926e-06Z"/>
<path id="path18_fill" d="M 3.25004 1.90926e-06L 0 1.90926e-06L 0 3.25005L 3.25004 3.25005L 3.25004 1.90926e-06Z"/>
</defs>
</svg>
