<svg width="92" height="91" viewBox="0 0 92 91" version="1.1" xmlns="http://www.w3.org/2000/svg" xmlns:xlink="http://www.w3.org/1999/xlink">
<title>industry</title>
<desc>Created using Figma</desc>
<g id="Canvas" transform="translate(585 -547)">
<g id="industry">
<g id="Group">
<g id="Group">
<g id="Group">
<g id="Vector">
<use xlink:href="#path0_fill" transform="translate(-585 565.52)" fill="#FFFFFF"/>
</g>
<g id="Vector">
<use xlink:href="#path1_fill" transform="translate(-569.669 547)" fill="#FFFFFF"/>
</g>
<g id="Vector">
<use xlink:href="#path2_fill" transform="translate(-552.8 614.868)" fill="#FFFFFF"/>
</g>
<g id="Vector">
<use xlink:href="#path3_fill" transform="translate(-545.133 614.868)" fill="#FFFFFF"/>
</g>
<g id="Vector">
<use xlink:href="#path4_fill" transform="translate(-531.333 610.242)" fill="#FFFFFF"/>
</g>
<g id="Vector">
<use xlink:href="#path5_fill" transform="translate(-509.866 610.242)" fill="#FFFFFF"/>
</g>
</g>
</g>
</g>
</g>
</g>
<defs>
<path id="path0_fill" d="M 89.8626 32.5092L 70.5333 40.8407L 70.5333 33.9267C 70.5333 32.8197 69.4078 32.0731 68.396 32.5094L 47.2186 41.6374L 42.9334 41.6374L 42.9334 29.8817C 42.9334 27.8564 41.3024 26.216 39.2886 26.216L 34.3115 26.216C 32.2977 26.216 30.6667 27.8564 30.6667 29.8817L 30.6667 41.6374L 26.0667 41.6374L 24.424 41.6374L 21.4626 1.42822C 21.4033 0.622935 20.7363 1.32362e-07 19.9335 1.32362e-07L 10.7335 1.32362e-07C 9.93063 1.32362e-07 9.26363 0.622935 9.20434 1.42822L 6.24291 41.6374L 4.60022 41.6374C 3.81894 41.6374 3.16254 42.2282 3.07629 43.0093L 0.00957091 70.7676C -0.0914132 71.6811 0.619609 72.48 1.5335 72.48L 10.7304 72.48C 10.7315 72.48 10.7324 72.4802 10.7335 72.4802L 19.9335 72.4802C 19.9345 72.4802 19.9354 72.48 19.9365 72.48L 29.1334 72.48L 47.5334 72.48L 55.197 72.48C 55.1981 72.48 55.199 72.4802 55.2001 72.4802L 61.3334 72.4802C 61.3344 72.4802 61.3353 72.48 61.3364 72.48L 69.0001 72.48L 76.6637 72.48C 76.6648 72.48 76.6657 72.4802 76.6668 72.4802L 82.8 72.4802C 82.8011 72.4802 82.802 72.48 82.8031 72.48L 90.4667 72.48C 91.3136 72.48 92 71.7895 92 70.938L 92 33.9269C 92 32.8197 90.8744 32.0731 89.8626 32.5092ZM 33.7334 29.8817C 33.7334 29.5599 33.9914 29.3004 34.3115 29.3004L 39.2886 29.3004C 39.6086 29.3004 39.8667 29.5599 39.8667 29.8817L 39.8667 41.6374L 33.7334 41.6374L 33.7334 29.8817ZM 32.2001 44.7216L 41.4001 44.7216L 46.0001 44.7216L 46.0001 69.3956L 30.5059 69.3956L 27.78 44.7216L 32.2001 44.7216ZM 12.1575 3.08413L 18.5096 3.08413L 21.349 41.6373L 9.3179 41.6373L 12.1575 3.08413ZM 5.97266 44.7216L 7.66693 44.7216L 23.0002 44.7216L 24.6944 44.7216L 25.907 55.6962L 27.4205 69.3956L 21.4669 69.3956L 21.4669 58.6009C 21.4669 57.7492 20.7805 57.0588 19.9336 57.0588L 10.7337 57.0588C 9.88679 57.0588 9.20038 57.7492 9.20038 58.6009L 9.20038 69.3956L 3.24663 69.3956L 5.97266 44.7216ZM 12.2669 69.3956L 12.2669 60.143L 18.4002 60.143L 18.4002 69.3956L 12.2669 69.3956ZM 49.0668 44.1964L 67.4668 36.2654L 67.4668 43.1795L 67.4668 69.3957L 62.8668 69.3957L 62.8668 60.1432C 62.8668 59.2914 62.1804 58.6011 61.3335 58.6011L 55.2003 58.6011C 54.3534 58.6011 53.667 59.2916 53.667 60.1432L 53.667 69.3957L 49.067 69.3957L 49.067 44.1964L 49.0668 44.1964ZM 56.7334 69.3956L 56.7334 61.685L 59.8001 61.685L 59.8001 69.3956L 56.7334 69.3956ZM 81.2668 69.3956L 78.2 69.3956L 78.2 61.685L 81.2668 61.685L 81.2668 69.3956ZM 88.9333 69.3956L 84.3333 69.3956L 84.3333 60.143C 84.3333 59.2912 83.6469 58.6009 82.8 58.6009L 76.6668 58.6009C 75.8199 58.6009 75.1335 59.2914 75.1335 60.143L 75.1335 69.3956L 70.5335 69.3956L 70.5335 44.1962L 88.9335 36.2652L 88.9335 69.3956L 88.9333 69.3956Z"/>
<path id="path1_fill" d="M 2.09287 15.3303C 2.1969 15.2894 2.4066 15.2121 2.7038 15.1103C 3.20674 14.9381 3.76216 14.7653 4.35153 14.6043C 5.56729 14.272 6.75916 14.0349 7.85435 13.934C 10.5721 13.6837 12.0197 14.2601 12.2966 15.7237C 12.3228 16.002 12.4295 16.6524 12.6227 17.4763C 12.9434 18.844 13.3998 20.2135 14.0221 21.5052C 15.8788 25.3607 18.8284 27.7725 23.003 27.7725C 24.6183 27.8172 26.2453 27.7608 27.8205 27.534C 29.9257 27.2307 31.598 26.6826 32.6203 25.7467C 34.9113 28.0508 37.1423 29.5024 39.2771 30.2701C 40.759 30.8028 42.0084 30.9488 42.9526 30.8648C 46.0431 30.8279 48.8936 29.539 51.5215 27.4377C 52.3644 26.7638 53.1294 26.0474 53.809 25.3269C 56.3857 27.3556 59.0655 27.9652 61.2848 27.7861C 61.821 27.772 62.2023 27.7673 62.5718 27.7584C 74.0419 27.4962 79.9148 13.7179 71.9721 5.44192C 71.7906 5.25271 71.6506 5.11717 71.5626 5.03729C 70.5761 4.1431 69.0027 4.84718 69.0027 6.18287C 69.0027 10.2194 68.0617 12.4303 66.6212 13.3923C 65.9446 13.844 65.2318 13.9687 64.6725 13.9158C 64.6513 13.9138 64.4026 13.8936 64.4026 13.8936C 61.5301 13.8936 58.5859 11.2466 56.1115 7.35121C 54.6605 5.06476 52.92 3.18728 50.886 1.81961C 48.7552 0.387779 47.0811 -0.0934735 45.9128 0.0145959C 42.1616 0.0350171 39.0944 1.3389 36.7029 3.49161C 36.3741 3.78763 36.0729 4.08419 35.7986 4.37695C 35.0856 3.38011 34.0256 2.64784 32.7263 2.17309C 31.4158 1.69437 30.1235 1.54437 29.1324 1.5563C 25.5891 1.55648 22.6509 2.1796 20.2914 3.23065C 19.2113 3.71173 18.3996 4.20834 17.8397 4.64062L 15.3362 4.64062C 10.0203 4.64062 6.00178 6.23527 3.16416 8.91352C 1.42569 10.5543 0.472447 12.2187 0.0807288 13.4085C -0.32734 14.6473 0.883751 15.8039 2.09287 15.3303ZM 15.3362 7.72475L 18.4029 7.72475C 18.8054 7.72475 19.1919 7.56554 19.4787 7.28145C 19.7406 7.02194 20.4107 6.55063 21.5332 6.05058C 23.501 5.17392 26.0162 4.64062 29.1361 4.64062C 29.8236 4.6323 30.7801 4.74326 31.6792 5.07181C 33.0411 5.56933 33.7361 6.36394 33.7361 7.72475C 33.7361 9.36242 35.9393 9.87096 36.6494 8.3972C 36.7089 8.27377 36.8621 8.00559 37.1139 7.64144C 37.5485 7.01272 38.0923 6.38003 38.7481 5.78962C 40.6203 4.10443 43.0035 3.09837 46.0028 3.09837L 46.2826 3.07253C 46.2695 3.07867 46.4779 3.09873 46.8281 3.19921C 47.4673 3.38264 48.2518 3.75853 49.1822 4.38382C 50.84 5.49849 52.292 7.06477 53.527 9.01092C 56.501 13.6926 60.0755 16.9231 64.2958 16.977C 65.5849 17.0997 66.978 16.8561 68.3176 15.9615C 69.956 14.8673 71.1098 13.0256 71.6743 10.3715C 74.5224 16.5964 70.1233 24.5004 62.5002 24.6748C 62.1247 24.6839 61.7367 24.6884 61.336 24.6884L 61.1087 24.7054C 60.5231 24.7533 59.8279 24.7137 59.0233 24.5238C 57.8167 24.2389 56.6239 23.6675 55.4957 22.7339C 55.2434 22.5252 54.9958 22.2993 54.7536 22.0557C 54.0981 21.3964 53.0153 21.4684 52.4518 22.2088C 52.3334 22.3644 52.0841 22.6644 51.7183 23.0599C 51.0996 23.7291 50.3924 24.3998 49.6127 25.0233C 47.4491 26.7535 45.177 27.7725 42.9359 27.7725L 42.6775 27.7946C 42.1672 27.8383 41.3615 27.7442 40.3091 27.3657C 38.6116 26.7553 36.7655 25.5542 34.8202 23.5978L 33.2869 22.0557L 30.2202 18.9714C 29.6213 18.3692 28.6506 18.3692 28.0517 18.9714C 27.453 19.5737 27.453 20.55 28.0517 21.1523L 30.415 23.5291C 29.9733 23.882 28.9557 24.2545 27.3853 24.4807C 26.0099 24.6788 24.5403 24.7298 23.2943 24.6972C 23.1838 24.6944 23.1044 24.6915 23.0744 24.69C 20.1751 24.6884 18.1741 23.0522 16.7817 20.1609C 16.2666 19.0912 15.8797 17.9308 15.6073 16.7684C 15.4445 16.0743 15.3575 15.5439 15.3266 15.2647C 14.6525 11.6749 11.6662 10.4859 7.57458 10.8627C 6.80102 10.9339 6.00321 11.0595 5.19247 11.2294C 7.53091 9.02158 10.7987 7.72475 15.3362 7.72475Z"/>
<path id="path2_fill" d="M 1.53327 15.4212C 2.38013 15.4212 3.06654 14.7309 3.06654 13.8791L 3.06654 1.54207C 3.06654 0.690344 2.38013 -2.38251e-06 1.53327 -2.38251e-06C 0.686403 -2.38251e-06 7.23837e-07 0.690344 7.23837e-07 1.54207L 7.23837e-07 13.8791C 7.23837e-07 14.7307 0.686583 15.4212 1.53327 15.4212Z"/>
<path id="path3_fill" d="M 1.53327 15.4212C 2.38013 15.4212 3.06654 14.7309 3.06654 13.8791L 3.06654 1.54207C 3.06654 0.690344 2.38013 -2.38251e-06 1.53327 -2.38251e-06C 0.686405 -2.38251e-06 -6.79968e-07 0.690344 -6.79968e-07 1.54207L -6.79968e-07 13.8791C -6.79968e-07 14.7307 0.686405 15.4212 1.53327 15.4212Z"/>
<path id="path4_fill" d="M 1.53327 9.25258L 7.66653 9.25258C 8.5134 9.25258 9.1998 8.56224 9.1998 7.71052L 9.1998 1.54207C 9.1998 0.690344 8.5134 -2.20603e-06 7.66653 -2.20603e-06L 1.53327 -2.20603e-06C 0.686403 -2.20603e-06 -1.31607e-07 0.690344 -1.31607e-07 1.54207L -1.31607e-07 7.71052C -1.31607e-07 8.56224 0.686403 9.25258 1.53327 9.25258ZM 3.06654 3.08413L 6.13326 3.08413L 6.13326 6.16845L 3.06654 6.16845L 3.06654 3.08413Z"/>
<path id="path5_fill" d="M 1.53327 9.25258L 7.66653 9.25258C 8.51339 9.25258 9.1998 8.56224 9.1998 7.71052L 9.1998 1.54207C 9.1998 0.690344 8.51339 -2.20603e-06 7.66653 -2.20603e-06L 1.53327 -2.20603e-06C 0.686404 -2.20603e-06 1.79002e-06 0.690344 1.79002e-06 1.54207L 1.79002e-06 7.71052C -0.000177897 8.56224 0.686404 9.25258 1.53327 9.25258ZM 3.06654 3.08413L 6.13326 3.08413L 6.13326 6.16845L 3.06654 6.16845L 3.06654 3.08413Z"/>
</defs>
</svg>
