<svg width="112" height="112" viewBox="0 0 112 112" version="1.1" xmlns="http://www.w3.org/2000/svg" xmlns:xlink="http://www.w3.org/1999/xlink">
<title>interview</title>
<desc>Created using Figma</desc>
<g id="Canvas" transform="translate(792 -2239)">
<g id="interview">
<g id="Group">
<g id="Group">
<g id="Vector">
<use xlink:href="#path0_fill" transform="translate(-780 2263)" fill="#FFFFFF"/>
</g>
<g id="Vector">
<use xlink:href="#path0_fill" transform="translate(-716 2263)" fill="#FFFFFF"/>
</g>
<g id="Vector">
<use xlink:href="#path1_fill" transform="translate(-792 2291)" fill="#FFFFFF"/>
</g>
<g id="Vector">
<use xlink:href="#path2_fill" transform="translate(-760 2239)" fill="#FFFFFF"/>
</g>
<g id="Vector">
<use xlink:href="#path3_fill" transform="translate(-752 2247)" fill="#FFFFFF"/>
</g>
<g id="Vector">
<use xlink:href="#path4_fill" transform="translate(-738 2289)" fill="#FFFFFF"/>
</g>
<g id="Vector">
<use xlink:href="#path5_fill" transform="translate(-746 2281)" fill="#FFFFFF"/>
</g>
<g id="Vector">
<use xlink:href="#path6_fill" transform="translate(-746 2271)" fill="#FFFFFF"/>
</g>
<g id="Vector">
<use xlink:href="#path6_fill" transform="translate(-738 2271)" fill="#FFFFFF"/>
</g>
<g id="Vector">
<use xlink:href="#path6_fill" transform="translate(-730 2271)" fill="#FFFFFF"/>
</g>
</g>
</g>
</g>
</g>
<defs>
<path id="path0_fill" d="M 12 24C 18.618 24 24 18.618 24 12C 24 5.38199 18.618 0 12 0C 5.382 0 0 5.38199 0 12C 0 18.618 5.382 24 12 24ZM 12 3.99999C 16.412 3.99999 20 7.58799 20 12C 20 16.412 16.412 20 12 20C 7.588 20 4 16.412 4 12C 4 7.58799 7.588 3.99999 12 3.99999Z"/>
<path id="path1_fill" d="M 108 0L 108 26C 108 29.308 105.308 32 102 32L 102 9.99999C 102 4.48599 97.514 0 92 0L 82 0C 80.896 0 80 0.895999 80 2L 80 9.99999L 80 12L 80 14L 64 14C 62.896 14 62 14.896 62 16L 62 22L 50 22L 50 16C 50 14.896 49.104 14 48 14L 32 14L 32 12L 32 9.99999L 32 2C 32 0.895999 31.104 0 30 0L 20 0C 14.486 0 10 4.48599 10 9.99999L 10 32C 6.692 32 4 29.308 4 26L 4 0L 0 0L 0 26C 0 30.09 2.474 33.604 6 35.152L 6 59.9999L 10 59.9999L 10 36L 12 36L 14 36L 30 36L 30 57.9999C 30 59.1039 30.896 59.9999 32 59.9999L 38 59.9999L 40 59.9999L 42 59.9999L 42 57.9999L 42 28L 42 26L 48 26L 64 26L 70 26L 70 28L 70 57.9999L 70 59.9999L 72 59.9999L 74 59.9999L 80 59.9999C 81.104 59.9999 82 59.1039 82 57.9999L 82 36L 98 36L 100 36L 102 36L 102 59.9999L 106 59.9999L 106 35.152C 109.526 33.604 112 30.09 112 26L 112 0L 108 0ZM 40 22L 36 22L 24 22L 24 9.99999L 20 9.99999L 20 24C 20 25.104 20.896 26 22 26L 36 26C 37.102 26 38 26.898 38 28L 38 55.9999L 34 55.9999L 34 34C 34 32.896 33.104 32 32 32L 14 32L 14 9.99999C 14 6.69199 16.692 3.99999 20 3.99999L 28 3.99999L 28 9.99999L 28 12L 28 16C 28 17.104 28.896 18 30 18L 46 18L 46 22L 40 22ZM 80 32C 78.896 32 78 32.896 78 34L 78 55.9999L 74 55.9999L 74 28C 74 26.898 74.898 26 76 26L 90 26C 91.104 26 92 25.104 92 24L 92 9.99999L 88 9.99999L 88 22L 76 22L 72 22L 66 22L 66 18L 82 18C 83.104 18 84 17.104 84 16L 84 12L 84 9.99999L 84 3.99999L 92 3.99999C 95.308 3.99999 98 6.69199 98 9.99999L 98 32L 80 32Z"/>
<path id="path2_fill" d="M 6 20L 6 26C 6 26.862 6.55 27.624 7.368 27.898C 7.576 27.966 7.79 28 8 28C 8.618 28 9.214 27.712 9.6 27.2L 15 20L 30 20C 33.308 20 36 17.308 36 14L 36 5.99999C 36 2.692 33.308 0 30 0L 6 0C 2.692 0 0 2.692 0 5.99999L 0 14C 0 17.308 2.692 20 6 20ZM 4 5.99999C 4 4.89799 4.898 3.99999 6 3.99999L 30 3.99999C 31.102 3.99999 32 4.89799 32 5.99999L 32 14C 32 15.102 31.102 16 30 16L 14 16C 13.37 16 12.778 16.296 12.4 16.8L 10 20L 10 18C 10 16.896 9.104 16 8 16L 6 16C 4.898 16 4 15.102 4 14L 4 5.99999Z"/>
<path id="path3_fill" d="M 20 0L 0 0L 0 4L 20 4L 20 0Z"/>
<path id="path4_fill" d="M 12 0L 0 0L 0 4L 12 4L 12 0Z"/>
<path id="path5_fill" d="M 6 0C 2.692 0 0 2.692 0 5.99999L 0 14C 0 17.308 2.692 20 6 20L 22 20C 25.308 20 28 17.308 28 14L 28 12.606L 31.664 7.10999C 32.074 6.49599 32.112 5.70799 31.764 5.05799C 31.416 4.40599 30.738 3.99999 30 3.99999L 27.658 3.99999C 26.832 1.672 24.608 0 22 0L 6 0ZM 24 5.99999C 24 7.10399 24.896 7.99999 26 7.99999L 26.262 7.99999L 24.336 10.89C 24.118 11.218 24 11.606 24 12L 24 14C 24 15.102 23.102 16 22 16L 6 16C 4.898 16 4 15.102 4 14L 4 5.99999C 4 4.89799 4.898 3.99999 6 3.99999L 22 3.99999C 23.102 3.99999 24 4.89799 24 5.99999Z"/>
<path id="path6_fill" d="M 4 0L 0 0L 0 4L 4 4L 4 0Z"/>
</defs>
</svg>
