<svg width="276" height="77" viewBox="0 0 276 77" version="1.1" xmlns="http://www.w3.org/2000/svg" xmlns:xlink="http://www.w3.org/1999/xlink">
<title>logo</title>
<desc>Created using Figma</desc>
<g id="Canvas" transform="translate(656 474)">
<g id="logo">
<g id="SAB DESIGN SERVICES LIMITED">
<use xlink:href="#path0_fill" transform="translate(-573.769 -459.453)" fill="#FFFFFF"/>
</g>
<g id="Group" filter="url(#filter0_d)">
<g id="Subtract">
<use xlink:href="#path1_fill" transform="translate(-615.715 -447.942)" fill="#FFFFFF"/>
</g>
<g id="Subtract">
<use xlink:href="#path2_fill" transform="translate(-628.357 -455.243)" fill="#FFFFFF"/>
</g>
<g id="Rectangle 2">
<use xlink:href="#path3_fill" transform="translate(-641 -463)" fill="#FFFFFF"/>
</g>
</g>
</g>
</g>
<defs>
<filter id="filter0_d" filterUnits="userSpaceOnUse" x="-656" y="-474" width="74" height="77" color-interpolation-filters="sRGB">
<feFlood flood-opacity="0" result="BackgroundImageFix"/>
<feColorMatrix in="SourceAlpha" type="matrix" values="0 0 0 0 0 0 0 0 0 0 0 0 0 0 0 0 0 0 255 0"/>
<feOffset dx="0" dy="4"/>
<feGaussianBlur stdDeviation="7.5"/>
<feColorMatrix type="matrix" values="0 0 0 0 0 0 0 0 0 0 0 0 0 0 0 0 0 0 0.04 0"/>
<feBlend mode="normal" in2="BackgroundImageFix" result="effect1_dropShadow"/>
<feBlend mode="normal" in="SourceGraphic" in2="effect1_dropShadow" result="shape"/>
</filter>
<path id="path0_fill" d="M 5.958 17.18C 4.818 17.18 3.84 17.012 3.024 16.676C 2.208 16.34 1.59 15.902 1.17 15.362C 0.762 14.81 0.546 14.21 0.522 13.562C 0.522 13.466 0.558 13.382 0.63 13.31C 0.714 13.226 0.81 13.184 0.918 13.184L 3.186 13.184C 3.33 13.184 3.444 13.214 3.528 13.274C 3.624 13.322 3.72 13.4 3.816 13.508C 3.972 13.82 4.224 14.078 4.572 14.282C 4.92 14.486 5.382 14.588 5.958 14.588C 6.642 14.588 7.164 14.48 7.524 14.264C 7.884 14.048 8.064 13.754 8.064 13.382C 8.064 13.118 7.968 12.902 7.776 12.734C 7.596 12.566 7.308 12.416 6.912 12.284C 6.516 12.152 5.928 12.002 5.148 11.834C 3.708 11.534 2.628 11.096 1.908 10.52C 1.2 9.932 0.846 9.098 0.846 8.018C 0.846 7.286 1.05 6.632 1.458 6.056C 1.866 5.48 2.448 5.03 3.204 4.706C 3.96 4.382 4.842 4.22 5.85 4.22C 6.894 4.22 7.8 4.4 8.568 4.76C 9.336 5.12 9.918 5.576 10.314 6.128C 10.722 6.668 10.938 7.202 10.962 7.73C 10.962 7.838 10.926 7.928 10.854 8C 10.782 8.072 10.692 8.108 10.584 8.108L 8.208 8.108C 8.064 8.108 7.944 8.084 7.848 8.036C 7.764 7.988 7.686 7.91 7.614 7.802C 7.542 7.526 7.344 7.292 7.02 7.1C 6.708 6.908 6.318 6.812 5.85 6.812C 5.31 6.812 4.896 6.908 4.608 7.1C 4.32 7.292 4.176 7.574 4.176 7.946C 4.176 8.198 4.254 8.408 4.41 8.576C 4.578 8.744 4.842 8.9 5.202 9.044C 5.574 9.176 6.102 9.314 6.786 9.458C 7.902 9.662 8.79 9.92 9.45 10.232C 10.122 10.532 10.614 10.928 10.926 11.42C 11.238 11.9 11.394 12.506 11.394 13.238C 11.394 14.042 11.16 14.744 10.692 15.344C 10.236 15.932 9.594 16.388 8.766 16.712C 7.95 17.024 7.014 17.18 5.958 17.18ZM 14.0822 17C 13.9862 17 13.8962 16.964 13.8122 16.892C 13.7402 16.808 13.7042 16.718 13.7042 16.622C 13.7042 16.55 13.7102 16.496 13.7222 16.46L 17.9522 4.904C 17.9882 4.76 18.0662 4.64 18.1862 4.544C 18.3062 4.448 18.4622 4.4 18.6542 4.4L 21.3182 4.4C 21.5102 4.4 21.6662 4.448 21.7862 4.544C 21.9062 4.64 21.9842 4.76 22.0202 4.904L 26.2322 16.46L 26.2682 16.622C 26.2682 16.718 26.2262 16.808 26.1422 16.892C 26.0702 16.964 25.9802 17 25.8722 17L 23.6582 17C 23.3702 17 23.1782 16.874 23.0822 16.622L 22.3802 14.786L 17.5742 14.786L 16.8902 16.622C 16.7942 16.874 16.5962 17 16.2962 17L 14.0822 17ZM 21.6602 12.194L 19.9862 7.442L 18.3122 12.194L 21.6602 12.194ZM 29.937 17C 29.817 17 29.709 16.958 29.613 16.874C 29.529 16.778 29.487 16.67 29.487 16.55L 29.487 4.85C 29.487 4.718 29.529 4.61 29.613 4.526C 29.709 4.442 29.817 4.4 29.937 4.4L 35.427 4.4C 36.939 4.4 38.061 4.712 38.793 5.336C 39.537 5.948 39.909 6.824 39.909 7.964C 39.909 8.564 39.753 9.074 39.441 9.494C 39.141 9.902 38.799 10.202 38.415 10.394C 38.907 10.622 39.321 10.988 39.657 11.492C 39.993 11.996 40.161 12.56 40.161 13.184C 40.161 14.384 39.765 15.32 38.973 15.992C 38.181 16.664 37.053 17 35.589 17L 29.937 17ZM 35.067 9.404C 35.547 9.404 35.913 9.284 36.165 9.044C 36.417 8.792 36.543 8.462 36.543 8.054C 36.543 7.658 36.417 7.34 36.165 7.1C 35.913 6.86 35.547 6.74 35.067 6.74L 32.727 6.74L 32.727 9.404L 35.067 9.404ZM 35.229 14.66C 35.721 14.66 36.105 14.516 36.381 14.228C 36.657 13.94 36.795 13.592 36.795 13.184C 36.795 12.752 36.657 12.398 36.381 12.122C 36.105 11.834 35.721 11.69 35.229 11.69L 32.727 11.69L 32.727 14.66L 35.229 14.66ZM 50.0428 17C 49.9228 17 49.8148 16.958 49.7188 16.874C 49.6348 16.778 49.5928 16.67 49.5928 16.55L 49.5928 4.85C 49.5928 4.718 49.6348 4.61 49.7188 4.526C 49.8148 4.442 49.9228 4.4 50.0428 4.4L 54.7228 4.4C 56.4868 4.4 57.8548 4.82 58.8268 5.66C 59.7988 6.5 60.3088 7.718 60.3568 9.314C 60.3688 9.662 60.3748 10.124 60.3748 10.7C 60.3748 11.276 60.3688 11.732 60.3568 12.068C 60.2968 13.736 59.7988 14.978 58.8628 15.794C 57.9388 16.598 56.5888 17 54.8128 17L 50.0428 17ZM 54.7228 14.408C 55.5148 14.408 56.0968 14.222 56.4688 13.85C 56.8408 13.466 57.0388 12.86 57.0628 12.032C 57.0868 11.684 57.0988 11.234 57.0988 10.682C 57.0988 10.13 57.0868 9.686 57.0628 9.35C 57.0388 8.546 56.8228 7.952 56.4148 7.568C 56.0188 7.184 55.4248 6.992 54.6328 6.992L 52.8328 6.992L 52.8328 14.408L 54.7228 14.408ZM 64.7276 17C 64.6076 17 64.4996 16.958 64.4036 16.874C 64.3196 16.778 64.2776 16.67 64.2776 16.55L 64.2776 4.85C 64.2776 4.718 64.3196 4.61 64.4036 4.526C 64.4996 4.442 64.6076 4.4 64.7276 4.4L 73.1336 4.4C 73.2656 4.4 73.3736 4.442 73.4576 4.526C 73.5416 4.61 73.5836 4.718 73.5836 4.85L 73.5836 6.542C 73.5836 6.662 73.5416 6.77 73.4576 6.866C 73.3736 6.95 73.2656 6.992 73.1336 6.992L 67.3916 6.992L 67.3916 9.422L 72.7376 9.422C 72.8696 9.422 72.9776 9.47 73.0616 9.566C 73.1456 9.65 73.1876 9.758 73.1876 9.89L 73.1876 11.456C 73.1876 11.576 73.1456 11.684 73.0616 11.78C 72.9776 11.864 72.8696 11.906 72.7376 11.906L 67.3916 11.906L 67.3916 14.408L 73.2776 14.408C 73.4096 14.408 73.5176 14.45 73.6016 14.534C 73.6856 14.618 73.7276 14.726 73.7276 14.858L 73.7276 16.55C 73.7276 16.67 73.6856 16.778 73.6016 16.874C 73.5176 16.958 73.4096 17 73.2776 17L 64.7276 17ZM 82.2717 17.18C 81.1317 17.18 80.1537 17.012 79.3377 16.676C 78.5217 16.34 77.9037 15.902 77.4837 15.362C 77.0757 14.81 76.8597 14.21 76.8357 13.562C 76.8357 13.466 76.8717 13.382 76.9437 13.31C 77.0277 13.226 77.1237 13.184 77.2317 13.184L 79.4997 13.184C 79.6437 13.184 79.7577 13.214 79.8417 13.274C 79.9377 13.322 80.0337 13.4 80.1297 13.508C 80.2857 13.82 80.5377 14.078 80.8857 14.282C 81.2337 14.486 81.6957 14.588 82.2717 14.588C 82.9557 14.588 83.4777 14.48 83.8377 14.264C 84.1977 14.048 84.3777 13.754 84.3777 13.382C 84.3777 13.118 84.2817 12.902 84.0897 12.734C 83.9097 12.566 83.6217 12.416 83.2257 12.284C 82.8297 12.152 82.2417 12.002 81.4617 11.834C 80.0217 11.534 78.9417 11.096 78.2217 10.52C 77.5137 9.932 77.1597 9.098 77.1597 8.018C 77.1597 7.286 77.3637 6.632 77.7717 6.056C 78.1797 5.48 78.7617 5.03 79.5177 4.706C 80.2737 4.382 81.1557 4.22 82.1637 4.22C 83.2077 4.22 84.1137 4.4 84.8817 4.76C 85.6497 5.12 86.2317 5.576 86.6277 6.128C 87.0357 6.668 87.2517 7.202 87.2757 7.73C 87.2757 7.838 87.2397 7.928 87.1677 8C 87.0957 8.072 87.0057 8.108 86.8977 8.108L 84.5217 8.108C 84.3777 8.108 84.2577 8.084 84.1617 8.036C 84.0777 7.988 83.9997 7.91 83.9277 7.802C 83.8557 7.526 83.6577 7.292 83.3337 7.1C 83.0217 6.908 82.6317 6.812 82.1637 6.812C 81.6237 6.812 81.2097 6.908 80.9217 7.1C 80.6337 7.292 80.4897 7.574 80.4897 7.946C 80.4897 8.198 80.5677 8.408 80.7237 8.576C 80.8917 8.744 81.1557 8.9 81.5157 9.044C 81.8877 9.176 82.4157 9.314 83.0997 9.458C 84.2157 9.662 85.1037 9.92 85.7637 10.232C 86.4357 10.532 86.9277 10.928 87.2397 11.42C 87.5517 11.9 87.7077 12.506 87.7077 13.238C 87.7077 14.042 87.4737 14.744 87.0057 15.344C 86.5497 15.932 85.9077 16.388 85.0797 16.712C 84.2637 17.024 83.3277 17.18 82.2717 17.18ZM 91.7592 17C 91.6392 17 91.5312 16.958 91.4352 16.874C 91.3512 16.778 91.3092 16.67 91.3092 16.55L 91.3092 4.85C 91.3092 4.718 91.3512 4.61 91.4352 4.526C 91.5312 4.442 91.6392 4.4 91.7592 4.4L 94.1712 4.4C 94.3032 4.4 94.4112 4.442 94.4952 4.526C 94.5912 4.61 94.6392 4.718 94.6392 4.85L 94.6392 16.55C 94.6392 16.682 94.5912 16.79 94.4952 16.874C 94.4112 16.958 94.3032 17 94.1712 17L 91.7592 17ZM 104.147 17.18C 102.419 17.18 101.069 16.76 100.097 15.92C 99.1252 15.068 98.6092 13.862 98.5492 12.302C 98.5372 11.954 98.5312 11.402 98.5312 10.646C 98.5312 9.89 98.5372 9.338 98.5492 8.99C 98.6092 7.466 99.1312 6.29 100.115 5.462C 101.111 4.634 102.455 4.22 104.147 4.22C 105.287 4.22 106.277 4.406 107.117 4.778C 107.969 5.15 108.617 5.624 109.061 6.2C 109.517 6.776 109.757 7.37 109.781 7.982C 109.781 8.09 109.739 8.18 109.655 8.252C 109.583 8.324 109.493 8.36 109.385 8.36L 106.757 8.36C 106.637 8.36 106.541 8.342 106.469 8.306C 106.397 8.27 106.337 8.204 106.289 8.108C 106.133 7.76 105.887 7.46 105.551 7.208C 105.215 6.944 104.747 6.812 104.147 6.812C 102.719 6.812 101.969 7.568 101.897 9.08C 101.885 9.416 101.879 9.938 101.879 10.646C 101.879 11.342 101.885 11.864 101.897 12.212C 101.969 13.796 102.737 14.588 104.201 14.588C 104.909 14.588 105.473 14.408 105.893 14.048C 106.325 13.676 106.541 13.112 106.541 12.356L 106.541 12.014L 104.849 12.014C 104.717 12.014 104.609 11.972 104.525 11.888C 104.441 11.792 104.399 11.678 104.399 11.546L 104.399 10.214C 104.399 10.082 104.441 9.974 104.525 9.89C 104.609 9.794 104.717 9.746 104.849 9.746L 109.385 9.746C 109.517 9.746 109.625 9.794 109.709 9.89C 109.793 9.974 109.835 10.082 109.835 10.214L 109.835 12.266C 109.835 13.286 109.601 14.168 109.133 14.912C 108.665 15.644 107.999 16.208 107.135 16.604C 106.283 16.988 105.287 17.18 104.147 17.18ZM 114.15 17C 114.03 17 113.922 16.958 113.826 16.874C 113.742 16.778 113.7 16.67 113.7 16.55L 113.7 4.85C 113.7 4.718 113.742 4.61 113.826 4.526C 113.922 4.442 114.03 4.4 114.15 4.4L 116.058 4.4C 116.358 4.4 116.562 4.514 116.67 4.742L 121.062 11.654L 121.062 4.85C 121.062 4.718 121.104 4.61 121.188 4.526C 121.284 4.442 121.392 4.4 121.512 4.4L 123.672 4.4C 123.804 4.4 123.912 4.442 123.996 4.526C 124.08 4.61 124.122 4.718 124.122 4.85L 124.122 16.532C 124.122 16.664 124.08 16.778 123.996 16.874C 123.912 16.958 123.804 17 123.672 17L 121.746 17C 121.482 17 121.284 16.886 121.152 16.658L 116.76 9.998L 116.76 16.55C 116.76 16.67 116.718 16.778 116.634 16.874C 116.55 16.958 116.442 17 116.31 17L 114.15 17ZM 5.958 38.18C 4.818 38.18 3.84 38.012 3.024 37.676C 2.208 37.34 1.59 36.902 1.17 36.362C 0.762 35.81 0.546 35.21 0.522 34.562C 0.522 34.466 0.558 34.382 0.63 34.31C 0.714 34.226 0.81 34.184 0.918 34.184L 3.186 34.184C 3.33 34.184 3.444 34.214 3.528 34.274C 3.624 34.322 3.72 34.4 3.816 34.508C 3.972 34.82 4.224 35.078 4.572 35.282C 4.92 35.486 5.382 35.588 5.958 35.588C 6.642 35.588 7.164 35.48 7.524 35.264C 7.884 35.048 8.064 34.754 8.064 34.382C 8.064 34.118 7.968 33.902 7.776 33.734C 7.596 33.566 7.308 33.416 6.912 33.284C 6.516 33.152 5.928 33.002 5.148 32.834C 3.708 32.534 2.628 32.096 1.908 31.52C 1.2 30.932 0.846 30.098 0.846 29.018C 0.846 28.286 1.05 27.632 1.458 27.056C 1.866 26.48 2.448 26.03 3.204 25.706C 3.96 25.382 4.842 25.22 5.85 25.22C 6.894 25.22 7.8 25.4 8.568 25.76C 9.336 26.12 9.918 26.576 10.314 27.128C 10.722 27.668 10.938 28.202 10.962 28.73C 10.962 28.838 10.926 28.928 10.854 29C 10.782 29.072 10.692 29.108 10.584 29.108L 8.208 29.108C 8.064 29.108 7.944 29.084 7.848 29.036C 7.764 28.988 7.686 28.91 7.614 28.802C 7.542 28.526 7.344 28.292 7.02 28.1C 6.708 27.908 6.318 27.812 5.85 27.812C 5.31 27.812 4.896 27.908 4.608 28.1C 4.32 28.292 4.176 28.574 4.176 28.946C 4.176 29.198 4.254 29.408 4.41 29.576C 4.578 29.744 4.842 29.9 5.202 30.044C 5.574 30.176 6.102 30.314 6.786 30.458C 7.902 30.662 8.79 30.92 9.45 31.232C 10.122 31.532 10.614 31.928 10.926 32.42C 11.238 32.9 11.394 33.506 11.394 34.238C 11.394 35.042 11.16 35.744 10.692 36.344C 10.236 36.932 9.594 37.388 8.766 37.712C 7.95 38.024 7.014 38.18 5.958 38.18ZM 15.4455 38C 15.3255 38 15.2175 37.958 15.1215 37.874C 15.0375 37.778 14.9955 37.67 14.9955 37.55L 14.9955 25.85C 14.9955 25.718 15.0375 25.61 15.1215 25.526C 15.2175 25.442 15.3255 25.4 15.4455 25.4L 23.8515 25.4C 23.9835 25.4 24.0915 25.442 24.1755 25.526C 24.2595 25.61 24.3015 25.718 24.3015 25.85L 24.3015 27.542C 24.3015 27.662 24.2595 27.77 24.1755 27.866C 24.0915 27.95 23.9835 27.992 23.8515 27.992L 18.1095 27.992L 18.1095 30.422L 23.4555 30.422C 23.5875 30.422 23.6955 30.47 23.7795 30.566C 23.8635 30.65 23.9055 30.758 23.9055 30.89L 23.9055 32.456C 23.9055 32.576 23.8635 32.684 23.7795 32.78C 23.6955 32.864 23.5875 32.906 23.4555 32.906L 18.1095 32.906L 18.1095 35.408L 23.9955 35.408C 24.1275 35.408 24.2355 35.45 24.3195 35.534C 24.4035 35.618 24.4455 35.726 24.4455 35.858L 24.4455 37.55C 24.4455 37.67 24.4035 37.778 24.3195 37.874C 24.2355 37.958 24.1275 38 23.9955 38L 15.4455 38ZM 28.7416 38C 28.6216 38 28.5136 37.958 28.4176 37.874C 28.3336 37.778 28.2916 37.67 28.2916 37.55L 28.2916 25.85C 28.2916 25.718 28.3336 25.61 28.4176 25.526C 28.5136 25.442 28.6216 25.4 28.7416 25.4L 33.6376 25.4C 35.2096 25.4 36.4336 25.76 37.3096 26.48C 38.1976 27.188 38.6416 28.196 38.6416 29.504C 38.6416 30.344 38.4436 31.058 38.0476 31.646C 37.6516 32.234 37.1056 32.684 36.4096 32.996L 38.8756 37.424C 38.9116 37.496 38.9296 37.562 38.9296 37.622C 38.9296 37.718 38.8876 37.808 38.8036 37.892C 38.7316 37.964 38.6476 38 38.5516 38L 36.1576 38C 35.8096 38 35.5636 37.838 35.4196 37.514L 33.3676 33.554L 31.5316 33.554L 31.5316 37.55C 31.5316 37.682 31.4836 37.79 31.3876 37.874C 31.3036 37.958 31.1956 38 31.0636 38L 28.7416 38ZM 33.6016 30.998C 34.1536 30.998 34.5736 30.866 34.8616 30.602C 35.1496 30.326 35.2936 29.948 35.2936 29.468C 35.2936 28.988 35.1496 28.61 34.8616 28.334C 34.5856 28.046 34.1656 27.902 33.6016 27.902L 31.5316 27.902L 31.5316 30.998L 33.6016 30.998ZM 45.7327 38C 45.3487 38 45.1027 37.82 44.9947 37.46L 41.3227 25.94L 41.2867 25.778C 41.2867 25.682 41.3227 25.598 41.3947 25.526C 41.4787 25.442 41.5747 25.4 41.6827 25.4L 43.9147 25.4C 44.0827 25.4 44.2207 25.448 44.3287 25.544C 44.4487 25.64 44.5267 25.748 44.5627 25.868L 47.1187 34.184L 49.6567 25.868C 49.6927 25.748 49.7647 25.64 49.8727 25.544C 49.9927 25.448 50.1367 25.4 50.3047 25.4L 52.5547 25.4C 52.6507 25.4 52.7347 25.442 52.8067 25.526C 52.8907 25.598 52.9327 25.682 52.9327 25.778L 52.8967 25.94L 49.2247 37.46C 49.1167 37.82 48.8707 38 48.4867 38L 45.7327 38ZM 56.8631 38C 56.7431 38 56.6351 37.958 56.5391 37.874C 56.4551 37.778 56.4131 37.67 56.4131 37.55L 56.4131 25.85C 56.4131 25.718 56.4551 25.61 56.5391 25.526C 56.6351 25.442 56.7431 25.4 56.8631 25.4L 59.2751 25.4C 59.4071 25.4 59.5151 25.442 59.5991 25.526C 59.6951 25.61 59.7431 25.718 59.7431 25.85L 59.7431 37.55C 59.7431 37.682 59.6951 37.79 59.5991 37.874C 59.5151 37.958 59.4071 38 59.2751 38L 56.8631 38ZM 69.2151 38.18C 67.4991 38.18 66.1551 37.766 65.1831 36.938C 64.2231 36.098 63.7131 34.886 63.6531 33.302C 63.6411 32.978 63.6351 32.45 63.6351 31.718C 63.6351 30.974 63.6411 30.434 63.6531 30.098C 63.7131 28.538 64.2351 27.338 65.2191 26.498C 66.2031 25.646 67.5351 25.22 69.2151 25.22C 70.2711 25.22 71.2191 25.4 72.0591 25.76C 72.8991 26.108 73.5591 26.612 74.0391 27.272C 74.5311 27.92 74.7831 28.682 74.7951 29.558L 74.7951 29.594C 74.7951 29.69 74.7531 29.774 74.6691 29.846C 74.5971 29.906 74.5131 29.936 74.4171 29.936L 71.9871 29.936C 71.8311 29.936 71.7111 29.906 71.6271 29.846C 71.5431 29.774 71.4711 29.648 71.4111 29.468C 71.2431 28.856 70.9791 28.43 70.6191 28.19C 70.2591 27.938 69.7851 27.812 69.1971 27.812C 67.7811 27.812 67.0491 28.604 67.0011 30.188C 66.9891 30.512 66.9831 31.01 66.9831 31.682C 66.9831 32.354 66.9891 32.864 67.0011 33.212C 67.0491 34.796 67.7811 35.588 69.1971 35.588C 69.7851 35.588 70.2651 35.462 70.6371 35.21C 71.0091 34.946 71.2671 34.52 71.4111 33.932C 71.4591 33.752 71.5251 33.632 71.6091 33.572C 71.6931 33.5 71.8191 33.464 71.9871 33.464L 74.4171 33.464C 74.5251 33.464 74.6151 33.5 74.6871 33.572C 74.7711 33.644 74.8071 33.734 74.7951 33.842C 74.7831 34.718 74.5311 35.486 74.0391 36.146C 73.5591 36.794 72.8991 37.298 72.0591 37.658C 71.2191 38.006 70.2711 38.18 69.2151 38.18ZM 78.9377 38C 78.8177 38 78.7097 37.958 78.6137 37.874C 78.5297 37.778 78.4877 37.67 78.4877 37.55L 78.4877 25.85C 78.4877 25.718 78.5297 25.61 78.6137 25.526C 78.7097 25.442 78.8177 25.4 78.9377 25.4L 87.3437 25.4C 87.4757 25.4 87.5837 25.442 87.6677 25.526C 87.7517 25.61 87.7937 25.718 87.7937 25.85L 87.7937 27.542C 87.7937 27.662 87.7517 27.77 87.6677 27.866C 87.5837 27.95 87.4757 27.992 87.3437 27.992L 81.6017 27.992L 81.6017 30.422L 86.9477 30.422C 87.0797 30.422 87.1877 30.47 87.2717 30.566C 87.3557 30.65 87.3977 30.758 87.3977 30.89L 87.3977 32.456C 87.3977 32.576 87.3557 32.684 87.2717 32.78C 87.1877 32.864 87.0797 32.906 86.9477 32.906L 81.6017 32.906L 81.6017 35.408L 87.4877 35.408C 87.6197 35.408 87.7277 35.45 87.8117 35.534C 87.8957 35.618 87.9377 35.726 87.9377 35.858L 87.9377 37.55C 87.9377 37.67 87.8957 37.778 87.8117 37.874C 87.7277 37.958 87.6197 38 87.4877 38L 78.9377 38ZM 96.4818 38.18C 95.3418 38.18 94.3638 38.012 93.5478 37.676C 92.7318 37.34 92.1138 36.902 91.6938 36.362C 91.2858 35.81 91.0698 35.21 91.0458 34.562C 91.0458 34.466 91.0818 34.382 91.1538 34.31C 91.2378 34.226 91.3338 34.184 91.4418 34.184L 93.7098 34.184C 93.8538 34.184 93.9678 34.214 94.0518 34.274C 94.1478 34.322 94.2438 34.4 94.3398 34.508C 94.4958 34.82 94.7478 35.078 95.0958 35.282C 95.4438 35.486 95.9058 35.588 96.4818 35.588C 97.1658 35.588 97.6878 35.48 98.0478 35.264C 98.4078 35.048 98.5878 34.754 98.5878 34.382C 98.5878 34.118 98.4918 33.902 98.2998 33.734C 98.1198 33.566 97.8318 33.416 97.4358 33.284C 97.0398 33.152 96.4518 33.002 95.6718 32.834C 94.2318 32.534 93.1518 32.096 92.4318 31.52C 91.7238 30.932 91.3698 30.098 91.3698 29.018C 91.3698 28.286 91.5738 27.632 91.9818 27.056C 92.3898 26.48 92.9718 26.03 93.7278 25.706C 94.4838 25.382 95.3658 25.22 96.3738 25.22C 97.4178 25.22 98.3238 25.4 99.0918 25.76C 99.8598 26.12 100.442 26.576 100.838 27.128C 101.246 27.668 101.462 28.202 101.486 28.73C 101.486 28.838 101.45 28.928 101.378 29C 101.306 29.072 101.216 29.108 101.108 29.108L 98.7318 29.108C 98.5878 29.108 98.4678 29.084 98.3718 29.036C 98.2878 28.988 98.2098 28.91 98.1378 28.802C 98.0658 28.526 97.8678 28.292 97.5438 28.1C 97.2318 27.908 96.8418 27.812 96.3738 27.812C 95.8338 27.812 95.4198 27.908 95.1318 28.1C 94.8438 28.292 94.6998 28.574 94.6998 28.946C 94.6998 29.198 94.7778 29.408 94.9338 29.576C 95.1018 29.744 95.3658 29.9 95.7258 30.044C 96.0978 30.176 96.6258 30.314 97.3098 30.458C 98.4258 30.662 99.3138 30.92 99.9738 31.232C 100.646 31.532 101.138 31.928 101.45 32.42C 101.762 32.9 101.918 33.506 101.918 34.238C 101.918 35.042 101.684 35.744 101.216 36.344C 100.76 36.932 100.118 37.388 99.2898 37.712C 98.4738 38.024 97.5378 38.18 96.4818 38.18ZM 111.601 38C 111.481 38 111.373 37.958 111.277 37.874C 111.193 37.778 111.151 37.67 111.151 37.55L 111.151 25.85C 111.151 25.718 111.193 25.61 111.277 25.526C 111.373 25.442 111.481 25.4 111.601 25.4L 113.977 25.4C 114.109 25.4 114.217 25.442 114.301 25.526C 114.385 25.61 114.427 25.718 114.427 25.85L 114.427 35.282L 119.881 35.282C 120.013 35.282 120.121 35.33 120.205 35.426C 120.289 35.51 120.331 35.618 120.331 35.75L 120.331 37.55C 120.331 37.67 120.289 37.778 120.205 37.874C 120.121 37.958 120.013 38 119.881 38L 111.601 38ZM 124.142 38C 124.022 38 123.914 37.958 123.818 37.874C 123.734 37.778 123.692 37.67 123.692 37.55L 123.692 25.85C 123.692 25.718 123.734 25.61 123.818 25.526C 123.914 25.442 124.022 25.4 124.142 25.4L 126.554 25.4C 126.686 25.4 126.794 25.442 126.878 25.526C 126.974 25.61 127.022 25.718 127.022 25.85L 127.022 37.55C 127.022 37.682 126.974 37.79 126.878 37.874C 126.794 37.958 126.686 38 126.554 38L 124.142 38ZM 131.778 38C 131.658 38 131.55 37.958 131.454 37.874C 131.37 37.778 131.328 37.67 131.328 37.55L 131.328 25.85C 131.328 25.718 131.37 25.61 131.454 25.526C 131.55 25.442 131.658 25.4 131.778 25.4L 133.722 25.4C 134.01 25.4 134.22 25.532 134.352 25.796L 137.52 31.466L 140.688 25.796C 140.82 25.532 141.03 25.4 141.318 25.4L 143.244 25.4C 143.376 25.4 143.484 25.442 143.568 25.526C 143.664 25.61 143.712 25.718 143.712 25.85L 143.712 37.55C 143.712 37.682 143.664 37.79 143.568 37.874C 143.484 37.958 143.376 38 143.244 38L 141.102 38C 140.97 38 140.856 37.958 140.76 37.874C 140.676 37.79 140.634 37.682 140.634 37.55L 140.634 30.8L 138.618 34.562C 138.462 34.838 138.252 34.976 137.988 34.976L 137.052 34.976C 136.896 34.976 136.77 34.94 136.674 34.868C 136.578 34.796 136.494 34.694 136.422 34.562L 134.388 30.8L 134.388 37.55C 134.388 37.67 134.346 37.778 134.262 37.874C 134.178 37.958 134.07 38 133.938 38L 131.778 38ZM 148.484 38C 148.364 38 148.256 37.958 148.16 37.874C 148.076 37.778 148.034 37.67 148.034 37.55L 148.034 25.85C 148.034 25.718 148.076 25.61 148.16 25.526C 148.256 25.442 148.364 25.4 148.484 25.4L 150.896 25.4C 151.028 25.4 151.136 25.442 151.22 25.526C 151.316 25.61 151.364 25.718 151.364 25.85L 151.364 37.55C 151.364 37.682 151.316 37.79 151.22 37.874C 151.136 37.958 151.028 38 150.896 38L 148.484 38ZM 158.892 38C 158.772 38 158.664 37.958 158.568 37.874C 158.484 37.778 158.442 37.67 158.442 37.55L 158.442 28.226L 155.238 28.226C 155.118 28.226 155.01 28.184 154.914 28.1C 154.83 28.004 154.788 27.896 154.788 27.776L 154.788 25.85C 154.788 25.718 154.83 25.61 154.914 25.526C 155.01 25.442 155.118 25.4 155.238 25.4L 164.922 25.4C 165.054 25.4 165.162 25.442 165.246 25.526C 165.33 25.61 165.372 25.718 165.372 25.85L 165.372 27.776C 165.372 27.908 165.33 28.016 165.246 28.1C 165.162 28.184 165.054 28.226 164.922 28.226L 161.718 28.226L 161.718 37.55C 161.718 37.67 161.676 37.778 161.592 37.874C 161.508 37.958 161.4 38 161.268 38L 158.892 38ZM 169.258 38C 169.138 38 169.03 37.958 168.934 37.874C 168.85 37.778 168.808 37.67 168.808 37.55L 168.808 25.85C 168.808 25.718 168.85 25.61 168.934 25.526C 169.03 25.442 169.138 25.4 169.258 25.4L 177.664 25.4C 177.796 25.4 177.904 25.442 177.988 25.526C 178.072 25.61 178.114 25.718 178.114 25.85L 178.114 27.542C 178.114 27.662 178.072 27.77 177.988 27.866C 177.904 27.95 177.796 27.992 177.664 27.992L 171.922 27.992L 171.922 30.422L 177.268 30.422C 177.4 30.422 177.508 30.47 177.592 30.566C 177.676 30.65 177.718 30.758 177.718 30.89L 177.718 32.456C 177.718 32.576 177.676 32.684 177.592 32.78C 177.508 32.864 177.4 32.906 177.268 32.906L 171.922 32.906L 171.922 35.408L 177.808 35.408C 177.94 35.408 178.048 35.45 178.132 35.534C 178.216 35.618 178.258 35.726 178.258 35.858L 178.258 37.55C 178.258 37.67 178.216 37.778 178.132 37.874C 178.048 37.958 177.94 38 177.808 38L 169.258 38ZM 182.554 38C 182.434 38 182.326 37.958 182.23 37.874C 182.146 37.778 182.104 37.67 182.104 37.55L 182.104 25.85C 182.104 25.718 182.146 25.61 182.23 25.526C 182.326 25.442 182.434 25.4 182.554 25.4L 187.234 25.4C 188.998 25.4 190.366 25.82 191.338 26.66C 192.31 27.5 192.82 28.718 192.868 30.314C 192.88 30.662 192.886 31.124 192.886 31.7C 192.886 32.276 192.88 32.732 192.868 33.068C 192.808 34.736 192.31 35.978 191.374 36.794C 190.45 37.598 189.1 38 187.324 38L 182.554 38ZM 187.234 35.408C 188.026 35.408 188.608 35.222 188.98 34.85C 189.352 34.466 189.55 33.86 189.574 33.032C 189.598 32.684 189.61 32.234 189.61 31.682C 189.61 31.13 189.598 30.686 189.574 30.35C 189.55 29.546 189.334 28.952 188.926 28.568C 188.53 28.184 187.936 27.992 187.144 27.992L 185.344 27.992L 185.344 35.408L 187.234 35.408Z"/>
<path id="path1_fill" fill-rule="evenodd" d="M 0 21.7798L 0 31.9417L 18.0609 21.9029L 18.0609 0L 9.03052 4.79123L 9.03052 16.7604L 0 21.7798ZM 0 17.6136L 0 9.58252L 5.41833 6.70773L 5.41833 14.602L 0 17.6136Z"/>
<path id="path2_fill" fill-rule="evenodd" d="M 0 21.3235L 0 31.9417L 18.0609 21.9029L 18.0609 0L 9.03046 4.79126L 9.03046 16.3041L 0 21.3235ZM 0 17.1573L 0 9.58252L 5.41827 6.70776L 5.41827 14.1457L 0 17.1573Z"/>
<path id="path3_fill" d="M 0 9.58252L 18.0609 0L 18.0609 21.9029L 0 31.9417L 0 9.58252Z"/>
</defs>
</svg>
