<svg width="90" height="84" viewBox="0 0 90 84" version="1.1" xmlns="http://www.w3.org/2000/svg" xmlns:xlink="http://www.w3.org/1999/xlink">
<title>store</title>
<desc>Created using Figma</desc>
<g id="Canvas" transform="translate(587 -852)">
<g id="store">
<g id="Group">
<g id="Group">
<g id="Vector">
<use xlink:href="#path0_fill" transform="translate(-587 927)" fill="#FFFFFF"/>
</g>
</g>
</g>
<g id="Group">
<g id="Group">
<g id="Vector">
<use xlink:href="#path1_fill" transform="translate(-585.5 858)" fill="#FFFFFF"/>
</g>
</g>
</g>
<g id="Group">
<g id="Group">
<g id="Vector">
<use xlink:href="#path2_fill" transform="translate(-549.5 877.5)" fill="#FFFFFF"/>
</g>
</g>
</g>
<g id="Group">
<g id="Group">
<g id="Vector">
<use xlink:href="#path3_fill" transform="translate(-561.5 877.5)" fill="#FFFFFF"/>
</g>
</g>
</g>
<g id="Group">
<g id="Group">
<g id="Vector">
<use xlink:href="#path4_fill" transform="translate(-573.5 877.5)" fill="#FFFFFF"/>
</g>
</g>
</g>
<g id="Group">
<g id="Group">
<g id="Vector">
<use xlink:href="#path5_fill" transform="translate(-585.5 877.5)" fill="#FFFFFF"/>
</g>
</g>
</g>
<g id="Group">
<g id="Group">
<g id="Vector">
<use xlink:href="#path6_fill" transform="translate(-513.5 877.5)" fill="#FFFFFF"/>
</g>
</g>
</g>
<g id="Group">
<g id="Group">
<g id="Vector">
<use xlink:href="#path7_fill" transform="translate(-525.5 877.5)" fill="#FFFFFF"/>
</g>
</g>
</g>
<g id="Group">
<g id="Group">
<g id="Vector">
<use xlink:href="#path8_fill" transform="translate(-537.5 877.5)" fill="#FFFFFF"/>
</g>
</g>
</g>
<g id="Group">
<g id="Group">
<g id="Vector">
<use xlink:href="#path9_fill" transform="translate(-549.5 859.5)" fill="#FFFFFF"/>
</g>
</g>
</g>
<g id="Group">
<g id="Group">
<g id="Vector">
<use xlink:href="#path10_fill" transform="translate(-537.5 859.5)" fill="#FFFFFF"/>
</g>
</g>
</g>
<g id="Group">
<g id="Group">
<g id="Vector">
<use xlink:href="#path11_fill" transform="matrix(0.083 -0.9965 0.9965 0.083 -561.495 877.377)" fill="#FFFFFF"/>
</g>
</g>
</g>
<g id="Group">
<g id="Group">
<g id="Vector">
<use xlink:href="#path12_fill" transform="matrix(0.1646 -0.9864 0.9864 0.1646 -573.479 877.254)" fill="#FFFFFF"/>
</g>
</g>
</g>
<g id="Group">
<g id="Group">
<g id="Vector">
<use xlink:href="#path13_fill" transform="matrix(0.9965 -0.083 0.083 0.9965 -527.001 859.626)" fill="#FFFFFF"/>
</g>
</g>
</g>
<g id="Group">
<g id="Group">
<g id="Vector">
<use xlink:href="#path14_fill" transform="matrix(0.9864 -0.1644 0.1644 0.9864 -516.478 859.746)" fill="#FFFFFF"/>
</g>
</g>
</g>
<g id="Group">
<g id="Group">
<g id="Vector">
<use xlink:href="#path15_fill" transform="translate(-581 852)" fill="#FFFFFF"/>
</g>
</g>
</g>
<g id="Group">
<g id="Group">
<g id="Vector">
<use xlink:href="#path16_fill" transform="translate(-581 886.5)" fill="#FFFFFF"/>
</g>
</g>
</g>
<g id="Group">
<g id="Group">
<g id="Vector">
<use xlink:href="#path17_fill" transform="translate(-506 886.5)" fill="#FFFFFF"/>
</g>
</g>
</g>
<g id="Group">
<g id="Group">
<g id="Vector">
<use xlink:href="#path18_fill" transform="translate(-575 894)" fill="#FFFFFF"/>
</g>
</g>
</g>
<g id="Group">
<g id="Group">
<g id="Vector">
<use xlink:href="#path19_fill" transform="translate(-527 894)" fill="#FFFFFF"/>
</g>
</g>
</g>
<g id="Group">
<g id="Group">
<g id="Vector">
<use xlink:href="#path20_fill" transform="matrix(0.7071 -0.7071 0.7071 0.7071 -565.556 906.439)" fill="#FFFFFF"/>
</g>
</g>
</g>
<g id="Group">
<g id="Group">
<g id="Vector">
<use xlink:href="#path21_fill" transform="matrix(0.7071 -0.7071 0.7071 0.7071 -562.557 912.434)" fill="#FFFFFF"/>
</g>
</g>
</g>
<g id="Group">
<g id="Group">
<g id="Vector">
<use xlink:href="#path22_fill" transform="matrix(0.7071 -0.7071 0.7071 0.7071 -552.063 912.44)" fill="#FFFFFF"/>
</g>
</g>
</g>
</g>
</g>
<defs>
<path id="path0_fill" d="M 88.5002 3.00408e-07L 1.49994 3.00408e-07C 0.672013 3.00408e-07 0 0.670429 0 1.49994L 0 7.50007C 0 8.32958 0.672013 9.00001 1.49994 9.00001L 88.5001 9.00001C 89.3296 9.00001 90 8.32958 90 7.50007L 90 1.50012C 90.0002 0.670606 89.3298 3.00408e-07 88.5002 3.00408e-07ZM 87.0001 6.00013L 3.00006 6.00013L 3.00006 3.00006L 87.0003 3.00006L 87.0003 6.00013L 87.0001 6.00013Z"/>
<path id="path1_fill" d="M 86.955 19.1356L 82.455 1.13555C 82.2869 0.469512 81.6884 1.34111e-07 81 1.34111e-07L 5.99983 1.34111e-07C 5.31129 1.34111e-07 4.71135 0.469512 4.54488 1.13555L 0.0448742 19.1356C -0.067626 19.584 0.0343274 20.0581 0.317863 20.4226C 0.601399 20.7872 1.03786 21.0001 1.49982 21.0001L 85.5 21.0001C 85.962 21.0001 86.397 20.787 86.682 20.4226C 86.9669 20.0583 87.0675 19.584 86.955 19.1356ZM 3.42129 18L 7.17124 3.00006L 79.8284 3.00006L 83.5784 18L 3.42129 18Z"/>
<path id="path2_fill" d="M 12.0001 -7.72477e-07L 12.0001 3.00006C 12.0001 5.48104 9.98105 7.50007 7.50007 7.50007C 5.01909 7.50007 3.00006 5.48104 3.00006 3.00006L 3.00006 -7.72477e-07L -1.30892e-06 -7.72477e-07L -1.30892e-06 3.00006C -1.30892e-06 7.1355 3.36446 10.5001 7.50007 10.5001C 11.6355 10.5001 15.0001 7.13567 15.0001 3.00006L 15.0001 -7.72477e-07L 12.0001 -7.72477e-07Z"/>
<path id="path3_fill" d="M 12.0001 -7.72477e-07L 12.0001 3.00006C 12.0001 5.48104 9.98105 7.50007 7.50007 7.50007C 5.01909 7.50007 3.00006 5.48104 3.00006 3.00006L 3.00006 -7.72477e-07L -1.00851e-06 -7.72477e-07L -1.00851e-06 3.00006C -1.00851e-06 7.1355 3.36446 10.5001 7.50007 10.5001C 11.6355 10.5001 15.0001 7.13567 15.0001 3.00006L 15.0001 -7.72477e-07L 12.0001 -7.72477e-07Z"/>
<path id="path4_fill" d="M 12.0001 -7.72477e-07L 12.0001 3.00006C 12.0001 5.48104 9.98106 7.50007 7.50007 7.50007C 5.01909 7.50007 3.00006 5.48104 3.00006 3.00006L 3.00006 -7.72477e-07L 5.36443e-07 -7.72477e-07L 5.36443e-07 3.00006C 5.36443e-07 7.1355 3.36446 10.5001 7.50007 10.5001C 11.6357 10.5001 15.0001 7.13567 15.0001 3.00006L 15.0001 -7.72477e-07L 12.0001 -7.72477e-07Z"/>
<path id="path5_fill" d="M 12.0001 -7.72477e-07L 12.0001 3.00006C 12.0001 5.48104 9.98105 7.50007 7.50007 7.50007C 5.01909 7.50007 3.00006 5.48104 3.00006 3.00006L 3.00006 -7.72477e-07L -1.34111e-09 -7.72477e-07L -1.34111e-09 3.00006C -1.34111e-09 7.1355 3.36446 10.5001 7.50007 10.5001C 11.6355 10.5001 15.0001 7.13567 15.0001 3.00006L 15.0001 -7.72477e-07L 12.0001 -7.72477e-07Z"/>
<path id="path6_fill" d="M 12.0001 -7.72477e-07L 12.0001 3.00006C 12.0001 5.48104 9.98105 7.50007 7.50007 7.50007C 5.01909 7.50007 3.00007 5.48104 3.00007 3.00006L 3.00007 -7.72477e-07L -7.72478e-07 -7.72477e-07L -7.72478e-07 3.00006C -7.72478e-07 7.1355 3.36446 10.5001 7.50007 10.5001C 11.6355 10.5001 15.0001 7.13567 15.0001 3.00006L 15.0001 -7.72477e-07L 12.0001 -7.72477e-07Z"/>
<path id="path7_fill" d="M 12.0001 -7.72477e-07L 12.0001 3.00006C 12.0001 5.48104 9.98105 7.50007 7.50007 7.50007C 5.01909 7.50007 3.00007 5.48104 3.00007 3.00006L 3.00007 -7.72477e-07L -4.7207e-07 -7.72477e-07L -4.7207e-07 3.00006C -4.7207e-07 7.1355 3.36446 10.5001 7.50007 10.5001C 11.6355 10.5001 15.0001 7.13567 15.0001 3.00006L 15.0001 -7.72477e-07L 12.0001 -7.72477e-07Z"/>
<path id="path8_fill" d="M 12.0001 -7.72477e-07L 12.0001 3.00006C 12.0001 5.48104 9.98105 7.50007 7.50007 7.50007C 5.01909 7.50007 3.00006 5.48104 3.00006 3.00006L 3.00006 -7.72477e-07L 1.07289e-06 -7.72477e-07L 1.07289e-06 3.00006C 1.07289e-06 7.1355 3.36446 10.5001 7.50007 10.5001C 11.6355 10.5001 15.0001 7.13567 15.0001 3.00006L 15.0001 -7.72477e-07L 12.0001 -7.72477e-07Z"/>
<path id="path9_fill" d="M 3.00006 0L 0 0L 0 18L 3.00006 18L 3.00006 0Z"/>
<path id="path10_fill" d="M 3.00006 0L 0 0L 0 18L 3.00006 18L 3.00006 0Z"/>
<path id="path11_fill" d="M 18.0591 0L 0 0L 0 2.99989L 18.0591 2.99989L 18.0591 0Z"/>
<path id="path12_fill" d="M 18.2498 0L 0 0L 0 3.00006L 18.2498 3.00006L 18.2498 0Z"/>
<path id="path13_fill" d="M 2.99831 0L 0 0L 0 18.0591L 2.99831 18.0591L 2.99831 0Z"/>
<path id="path14_fill" d="M 3.00007 0L 0 0L 0 18.2491L 3.00007 18.2491L 3.00007 0Z"/>
<path id="path15_fill" d="M 76.5 -9.92419e-08L 1.49994 -9.92419e-08C 0.672013 -9.92419e-08 -1.98484e-07 0.672013 -1.98484e-07 1.49994L -1.98484e-07 7.49989L 2.99989 7.49989L 2.99989 2.99989L 75 2.99989L 75 7.49989L 78.0001 7.49989L 78.0001 1.49994C 78.0001 0.672013 77.3295 -9.92419e-08 76.5 -9.92419e-08Z"/>
<path id="path16_fill" d="M 3.00006 0L 0 0L 0 40.5001L 3.00006 40.5001L 3.00006 0Z"/>
<path id="path17_fill" d="M 3.00007 0L -2.14577e-06 0L -2.14577e-06 42L 3.00007 42L 3.00007 0Z"/>
<path id="path18_fill" d="M 43.5 0L 1.49994 0C 0.672014 0 -3.00408e-07 0.670429 -3.00408e-07 1.49994L -3.00408e-07 25.4999C -3.00408e-07 26.3294 0.672014 26.9999 1.49994 26.9999L 43.5 26.9999C 44.3295 26.9999 44.9999 26.3294 44.9999 25.4999L 44.9999 1.49994C 45.0001 0.670429 44.3295 0 43.5 0ZM 42 24L 2.99989 24L 2.99989 3.00006L 42 3.00006L 42 24Z"/>
<path id="path19_fill" d="M 16.4999 0L 1.49995 0C 0.670432 0 2.61784e-06 0.670429 2.61784e-06 1.49994L 2.61784e-06 34.4999C 2.61784e-06 35.3294 0.670432 35.9999 1.49995 35.9999L 16.4999 35.9999C 17.3294 35.9999 17.9999 35.3294 17.9999 34.4999L 17.9999 1.49994C 17.9999 0.670429 17.3294 0 16.4999 0ZM 15 33L 2.99989 33L 2.99989 3.00006L 15 3.00006L 15 33Z"/>
<path id="path20_fill" d="M 8.4855 0L 0 0L 0 3.00006L 8.4855 3.00006L 8.4855 0Z"/>
<path id="path21_fill" d="M 19.0918 0L 0 0L 0 3.00007L 19.0918 3.00007L 19.0918 0Z"/>
<path id="path22_fill" d="M 8.4855 2.2316e-06L 0 2.2316e-06L 0 3.00006L 8.4855 3.00006L 8.4855 2.2316e-06Z"/>
</defs>
</svg>
